<svg width="16" height="16" viewBox="0 0 16 16" fill="none" xmlns="http://www.w3.org/2000/svg">
<path d="M15.5001 11.69V13.94C15.5009 14.1488 15.4581 14.3556 15.3745 14.547C15.2908 14.7383 15.168 14.9101 15.0141 15.0513C14.8602 15.1926 14.6785 15.3001 14.4806 15.367C14.2828 15.4339 14.0731 15.4588 13.8651 15.44C11.5572 15.1892 9.34032 14.4006 7.39257 13.1375C5.58044 11.9859 4.04407 10.4496 2.89257 8.63745C1.62506 6.68085 0.836254 4.4532 0.590072 2.13495C0.57133 1.92755 0.595978 1.71852 0.662447 1.52117C0.728916 1.32382 0.83575 1.14247 0.976146 0.988666C1.11654 0.834865 1.28743 0.711983 1.47792 0.627842C1.6684 0.543702 1.87433 0.500147 2.08257 0.499951H4.33257C4.69655 0.496368 5.04942 0.62526 5.32539 0.8626C5.60137 1.09994 5.78163 1.42954 5.83257 1.78995C5.92754 2.51 6.10366 3.217 6.35757 3.89745C6.45848 4.16589 6.48032 4.45764 6.4205 4.73811C6.36069 5.01859 6.22172 5.27603 6.02007 5.47995L5.06757 6.43245C6.13524 8.31011 7.68991 9.86478 9.56757 10.9325L10.5201 9.97995C10.724 9.7783 10.9814 9.63934 11.2619 9.57952C11.5424 9.5197 11.8341 9.54154 12.1026 9.64245C12.783 9.89636 13.49 10.0725 14.2101 10.1675C14.5744 10.2188 14.9071 10.4024 15.145 10.6831C15.3828 10.9638 15.5092 11.3221 15.5001 11.69Z" fill="black" stroke="black" stroke-linecap="round" stroke-linejoin="round"/>
</svg>
