<svg width="141" height="49" viewBox="0 0 141 49" fill="none" xmlns="http://www.w3.org/2000/svg">
<path d="M8.15122 0L99.8819 0.0185413L94.0971 20.356H140.295L132.155 49L11.0483 48.9791L16.9097 28.4586H0L8.15122 0Z" fill="black"/>
<path d="M30.1709 23.1675L31.536 18.3885H37.854C41.1752 18.3885 43.2193 16.882 44.1395 13.6605L44.6517 11.899C45.8267 7.80835 43.91 5.27979 39.6942 5.27979H12.1534L7.04297 23.1675H30.1709ZM39.6733 10.1098L38.6003 13.9687H32.8061L33.9139 10.1098H39.6733Z" fill="#F8FF13"/>
<path d="M47.0113 23.1675L48.7078 20.1777H56.5439V23.1675H61.7053V5.27979H51.5864L41.0317 23.1675H47.0113ZM54.4023 10.1353H56.5439V15.8344H51.1715L54.4023 10.1353Z" fill="#F8FF13"/>
<path d="M82.7129 13.5075L83.1764 11.899C84.3515 7.75736 82.4348 5.27979 78.219 5.27979H68.4269L63.3164 23.1675H68.6795L70.0886 18.2355H73.4121L74.9163 23.1675H80.4347L78.8308 17.9064C80.7638 17.3084 82.0385 15.8785 82.7106 13.5028L82.7129 13.5075ZM72.4132 10.1098H78.1819L77.1088 13.9687H71.3147L72.4132 10.1098Z" fill="#F8FF13"/>
<path d="M87.7466 23.1674L92.8571 5.27734H87.4917L82.3789 23.1674H87.7466Z" fill="#F8FF13"/>
<path d="M54.9076 25.7212L48.8562 32.8735L46.374 25.7212H23.1695L18.0591 43.6112H41.1847L44.0076 33.7102L45.8872 39.2401H49.3382L54.3282 33.3834L51.3824 43.6112H56.7478L61.8606 25.7212H54.9076Z" fill="#F8FF13"/>
<path d="M69.0224 25.7236L58.4678 43.6113H64.4497L66.1439 40.6216H73.9799V43.6113H79.1436V25.7236H69.0224ZM68.6075 36.2759L71.8407 30.5791H73.9799V36.2759H68.6075Z" fill="#F8FF13"/>
<path d="M97.2603 30.834L98.7181 25.7212H82.4389L80.9834 30.834H86.8564L83.206 43.6112H88.5737L92.2241 30.834H97.2603Z" fill="#F8FF13"/>
<path d="M104.39 30.8341H112.518L113.999 25.7236H105.336C102.014 25.7236 99.9702 27.2301 99.0501 30.4517L97.1589 36.9921C95.9583 41.1848 97.9005 43.6113 102.116 43.6113H108.863L110.319 38.5009H102.193L104.39 30.8341Z" fill="#F8FF13"/>
<path d="M127.851 25.7212L126.025 32.111H119.893L121.717 25.7212H116.351L111.241 43.6112H116.606L118.432 37.2214H124.565L122.741 43.6112H128.106L133.217 25.7212H127.851Z" fill="#F8FF13"/>
</svg>
