<?xml version="1.0" standalone="no"?>
<!DOCTYPE svg PUBLIC "-//W3C//DTD SVG 1.1//EN" "http://www.w3.org/Graphics/SVG/1.1/DTD/svg11.dtd" >
<svg xmlns="http://www.w3.org/2000/svg" xmlns:xlink="http://www.w3.org/1999/xlink" version="1.1">
<metadata>
Created by FontForge 20161003 at Thu Feb 21 19:43:55 2019
 By www-data
Dmitry Rastvortsev exclusively for Pari-Match N.V. parimatch.com
</metadata>
<defs>
<font id="ParimatchThin" horiz-adv-x="390" >
  <font-face 
    font-family="ParimatchThin"
    font-weight="100"
    font-style="italic"
    font-stretch="normal"
    units-per-em="1000"
    panose-1="0 0 2 0 0 0 0 0 0 0"
    ascent="800"
    descent="-200"
    x-height="550"
    cap-height="700"
    bbox="-339 -155 2442 897"
    underline-thickness="50"
    underline-position="-150"
    slope="-16"
    unicode-range="U+000D-2265"
  />
<missing-glyph horiz-adv-x="140" 
 />
    <glyph glyph-name="uni04070407.liga" unicode="&#x407;&#x407;" horiz-adv-x="400" 
d="M116 769l24 86h66l-24 -86h-66zM236 769l24 86h66l-24 -86h-66zM352 769l24 86h66l-24 -86h-66zM472 769l24 86h66l-24 -86h-66zM-23 0l200 700h60l-200 -700h-60zM177 0l200 700h60l-200 -700h-60z" />
    <glyph glyph-name="uni04570457.liga" unicode="&#x457;&#x457;" horiz-adv-x="380" 
d="M76 619l24 86h66l-24 -86h-66zM196 619l24 86h66l-24 -86h-66zM309 619l24 86h66l-24 -86h-66zM429 619l24 86h66l-24 -86h-66zM-18 0l157 550h58l-157 -550h-58zM172 0l157 550h58l-157 -550h-58z" />
    <glyph glyph-name=".notdef" horiz-adv-x="140" 
 />
    <glyph glyph-name=".null" horiz-adv-x="600" 
 />
    <glyph glyph-name="nonmarkingreturn" horiz-adv-x="333" 
 />
    <glyph glyph-name="CR" unicode="&#xd;" horiz-adv-x="600" 
 />
    <glyph glyph-name="space" unicode=" " horiz-adv-x="140" 
 />
    <glyph glyph-name="exclam" unicode="!" horiz-adv-x="216" 
d="M62 196l153 504h66l-172 -504h-47zM-8 0l24 80h72l-24 -80h-72z" />
    <glyph glyph-name="quotedbl" unicode="&#x22;" horiz-adv-x="221" 
d="M106 550l41 155h62l-53 -155h-50zM215 550l41 155h62l-53 -155h-50z" />
    <glyph glyph-name="numbersign" unicode="#" 
d="M22 0l53 174h-70l18 58h70l71 236h-69l17 58h70l53 174h58l-53 -174h74l53 174h58l-53 -174h70l-17 -58h-71l-71 -236h70l-18 -58h-70l-53 -174h-58l53 174h-74l-53 -174h-58zM151 232h74l71 236h-74z" />
    <glyph glyph-name="dollar" unicode="$" horiz-adv-x="440" 
d="M76 -70l19 66q-64 6 -88.5 49t-4.5 113l26 92h60l-30 -107q-13 -44 2.5 -68t58.5 -24h21q40 0 63.5 22.5t39.5 76.5l6 21q8 28 -1 61.5t-25 52.5l-80 100q-25 32 -32 78t6 86l4 16q40 140 162 140h3l19 65h46l-20 -68q52 -11 73 -53t3 -104l-25 -85h-60l29 101
q11 39 -4 63.5t-54 24.5h-18q-69 0 -96 -92l-5 -19q-21 -73 17 -119l80 -100q59 -73 34 -161l-4 -13q-22 -75 -59.5 -110.5t-98.5 -39.5h-2l-19 -65h-46z" />
    <glyph glyph-name="percent" unicode="%" horiz-adv-x="450" 
d="M163 417q-38 0 -54 23t-4 62l40 132q21 71 81 71h28q32 0 48 -23.5t6 -55.5l-42 -138q-12 -37 -31 -54t-50 -17h-22zM-48 0l549 700h54l-549 -700h-54zM170 461h15q25 0 35 31l41 136q11 34 -20 34h-15q-25 0 -35 -31l-42 -137q-5 -15 1 -24t20 -9zM259 -5
q-38 0 -53.5 23t-4.5 62l41 132q21 71 80 71h28q32 0 48 -23.5t6 -55.5l-42 -138q-21 -71 -81 -71h-22zM267 39h15q26 0 34 31l42 136q10 34 -21 34h-15q-25 0 -34 -31l-42 -137q-5 -15 1 -24t20 -9z" />
    <glyph glyph-name="ampersand" unicode="&#x26;" horiz-adv-x="350" 
d="M79 -5q-62 0 -87 39.5t-5 106.5l44 146q21 69 55.5 102t89.5 36l-14 229l14 46h274l-17 -56h-216l24 -403l78 184h54l-126 -280l9 -145h-53l-4 66q-22 -38 -47.5 -54.5t-62.5 -16.5h-10zM94 50h12q26 0 42.5 18t38.5 65l6 13l-14 223h-2q-34 0 -53 -18t-33 -64l-48 -158
q-24 -79 51 -79z" />
    <glyph glyph-name="quotesingle" unicode="'" horiz-adv-x="132" 
d="M116 550l41 155h62l-53 -155h-50z" />
    <glyph glyph-name="parenleft" unicode="(" horiz-adv-x="236" 
d="M87 -155q-69 0 -94.5 37.5t-3.5 108.5l209 686q38 123 161 123h33l-16 -52h-32q-67 0 -89 -68l-216 -710q-23 -73 51 -73h27l-16 -52h-14z" />
    <glyph glyph-name="parenright" unicode=")" horiz-adv-x="236" 
d="M-116 -155l16 52h32q67 0 89 68l216 710q23 73 -51 73h-27l16 52h14q69 0 94.5 -37.5t3.5 -108.5l-209 -686q-38 -123 -161 -123h-33z" />
    <glyph glyph-name="asterisk" unicode="*" horiz-adv-x="213" 
d="M153 517l28 71l-68 -41l-11 33l75 29l-59 35l26 31l47 -47l17 72h36l-27 -71l68 41l11 -33l-76 -29l60 -35l-26 -31l-48 47l-17 -72h-36z" />
    <glyph glyph-name="plus" unicode="+" 
d="M137 154l40 131h-128l15 50h128l40 131h54l-40 -131h128l-15 -50h-128l-40 -131h-54z" />
    <glyph glyph-name="comma" unicode="," horiz-adv-x="172" 
d="M-53 -82l49 160h67l-68 -160h-48z" />
    <glyph glyph-name="hyphen" unicode="-" horiz-adv-x="272" 
d="M48 283l17 54h192l-17 -54h-192z" />
    <glyph glyph-name="period" unicode="." horiz-adv-x="174" 
d="M-28 0l24 80h72l-24 -80h-72z" />
    <glyph glyph-name="slash" unicode="/" horiz-adv-x="280" 
d="M-85 -155l412 955h38l-412 -955h-38z" />
    <glyph glyph-name="zero" unicode="0" 
d="M119 -5q-70 0 -99 44.5t-8 118.5l112 392q23 82 62.5 118.5t104.5 36.5h24q70 0 99 -44.5t8 -118.5l-112 -392q-23 -82 -62.5 -118.5t-104.5 -36.5h-24zM125 51h27q38 0 60 22.5t38 76.5l116 407q26 92 -57 92h-27q-38 0 -60 -22.5t-38 -76.5l-116 -407q-26 -92 57 -92z
" />
    <glyph glyph-name="one" unicode="1" horiz-adv-x="215" 
d="M12 0l185 646h-90l15 54h150l-200 -700h-60z" />
    <glyph glyph-name="two" unicode="2" horiz-adv-x="373" 
d="M-44 0l26 92q21 71 78 126l217 209q40 38 54 88l12 42q26 92 -49 92h-27q-36 0 -57 -22.5t-37 -76.5l-17 -60h-56l17 60q23 82 61.5 118.5t102.5 36.5h19q66 0 93 -44.5t6 -118.5l-8 -26q-20 -71 -78 -126l-216 -209q-40 -38 -54 -88l-11 -37h228l-16 -56h-288z" />
    <glyph glyph-name="three" unicode="3" horiz-adv-x="372" 
d="M104 -5q-67 0 -94.5 44.5t-6.5 118.5l26 92h60l-31 -111q-26 -88 49 -88h22q34 0 54.5 22.5t36.5 76.5l21 74q29 99 -58 99h-31l16 54h45q36 0 57.5 22.5t37.5 76.5l22 78q28 95 -47 95h-18q-34 0 -55 -22.5t-37 -76.5l-25 -87h-59l25 87q23 82 61 118.5t101 36.5h15
q65 0 91 -44.5t5 -118.5l-19 -65q-31 -107 -96 -131q52 -43 27 -131l-18 -65q-23 -82 -61.5 -118.5t-101.5 -36.5h-14z" />
    <glyph glyph-name="four" unicode="4" horiz-adv-x="374" 
d="M156 0l48 169h-219l13 45l345 486h72l-136 -477h64l-16 -54h-64l-48 -169h-59zM63 223h157l55 192l58 187h-2z" />
    <glyph glyph-name="five" unicode="5" horiz-adv-x="367" 
d="M112 -5q-68 0 -96.5 44.5t-7.5 118.5l18 63h57l-22 -78q-26 -92 57 -92h27q35 0 55.5 22.5t36.5 76.5l50 176q26 92 -51 92h-27q-37 0 -55 -15.5t-33 -53.5h-55l112 351h260l-16 -56h-208l-69 -207q40 37 82 37h15q67 0 94.5 -44.5t6.5 -118.5l-46 -161
q-23 -82 -61 -118.5t-100 -36.5h-24z" />
    <glyph glyph-name="six" unicode="6" horiz-adv-x="380" 
d="M117 -5q-69 0 -97.5 44.5t-7.5 118.5l112 392q23 82 62 118.5t103 36.5h20q65 0 91 -44.5t5 -118.5l-12 -42h-56l16 57q26 92 -50 92h-23q-38 0 -60 -22.5t-38 -76.5l-41 -144q32 41 77 41h22q70 0 98.5 -44.5t7.5 -118.5l-38 -134q-23 -82 -62.5 -118.5t-104.5 -36.5
h-24zM123 51h27q38 0 60 22.5t38 76.5l42 149q28 92 -56 92h-27q-38 0 -60.5 -22.5t-38.5 -76.5l-42 -149q-26 -92 57 -92z" />
    <glyph glyph-name="seven" unicode="7" horiz-adv-x="324" 
d="M-28 0l376 644h-242l16 56h304l-13 -46l-378 -654h-63z" />
    <glyph glyph-name="eight" unicode="8" 
d="M115 -5q-70 0 -99 44.5t-8 118.5l19 65q17 59 42 90.5t63 41.5q-50 42 -24 130l18 65q23 82 62.5 118.5t104.5 36.5h20q70 0 99 -44.5t8 -118.5l-19 -65q-31 -109 -97 -136q55 -37 28 -126l-18 -65q-23 -82 -62.5 -118.5t-104.5 -36.5h-32zM220 378h23q38 0 60.5 22.5
t37.5 76.5l23 80q26 92 -57 92h-23q-38 0 -60 -22.5t-38 -76.5l-23 -80q-26 -92 57 -92zM121 51h35q38 0 60 22.5t38 76.5l23 80q26 92 -57 92h-35q-38 0 -60.5 -22.5t-37.5 -76.5l-23 -80q-26 -92 57 -92z" />
    <glyph glyph-name="nine" unicode="9" horiz-adv-x="380" 
d="M115 -5q-65 0 -91 44.5t-5 118.5l12 42h56l-16 -57q-26 -92 50 -92h23q38 0 60 22.5t38 76.5l41 144q-32 -41 -77 -41h-22q-70 0 -98.5 44.5t-7.5 118.5l38 134q23 82 62.5 118.5t104.5 36.5h24q69 0 97.5 -44.5t7.5 -118.5l-112 -392q-23 -82 -62 -118.5t-103 -36.5h-20
zM190 309h27q38 0 60.5 22.5t38.5 76.5l42 149q26 92 -57 92h-27q-38 0 -60 -22.5t-38 -76.5l-42 -149q-28 -92 56 -92z" />
    <glyph glyph-name="colon" unicode=":" horiz-adv-x="195" 
d="M115 470l25 80h72l-25 -80h-72zM-28 1l25 80h72l-25 -80h-72z" />
    <glyph glyph-name="semicolon" unicode=";" horiz-adv-x="195" 
d="M115 470l25 80h72l-25 -80h-72zM-53 -82l49 160h67l-68 -160h-48z" />
    <glyph glyph-name="less" unicode="&#x3c;" 
d="M315 173l-254 119l13 41l326 119l-19 -64l-229 -81l179 -81z" />
    <glyph glyph-name="equal" unicode="=" horiz-adv-x="412" 
d="M62 350l15 52h310l-15 -52h-310zM24 218l15 52h310l-15 -52h-310z" />
    <glyph glyph-name="greater" unicode="&#x3e;" 
d="M25 174l19 64l229 81l-179 81l16 53l254 -119l-13 -41z" />
    <glyph glyph-name="question" unicode="?" horiz-adv-x="336" 
d="M82 170l18 59q20 68 77 126l87 89q42 43 56 88l8 25q28 92 -34 92h-25q-35 0 -56 -22.5t-37 -76.5l-19 -60h-56l19 60q25 82 63.5 118.5t100.5 36.5h17q59 0 81.5 -44.5t0.5 -118.5l-3 -9q-18 -61 -79 -123l-87 -89q-38 -39 -58 -91l-21 -60h-53zM31 0l24 80h72l-24 -80
h-72z" />
    <glyph glyph-name="at" unicode="@" horiz-adv-x="600" 
d="M111 -85q-79 0 -107 49t-5 123l117 383q25 83 68 119t112 36h202q79 0 107 -49t5 -123l-85 -280q-24 -78 -61.5 -111t-97.5 -33h-55v40q-39 -44 -86 -44h-6q-52 0 -72 35.5t-3 91.5l4 15q17 54 44.5 77t81.5 43l90 32q16 4 21 22l16 54q23 73 -46 73h-7
q-30 0 -47.5 -16.5t-29.5 -56.5l-17 -57h-48l16 54q20 63 51 91.5t82 28.5h10q56 0 78.5 -34.5t5.5 -92.5l-95 -309h33q27 0 49 20t32 53l92 304q18 59 -2.5 92t-74.5 33h-202q-83 0 -115 -108l-117 -383q-18 -59 2.5 -92t74.5 -33h195l-15 -47h-195zM229 72h16q27 0 49 21
t33 58l39 126l-92 -33q-36 -13 -51.5 -32t-25.5 -52l-5 -15q-22 -73 37 -73z" />
    <glyph glyph-name="A" unicode="A" horiz-adv-x="384" 
d="M-53 0l324 700h95l-76 -700h-62l20 162h-165l-73 -162h-63zM108 218h147l54 426h-10z" />
    <glyph glyph-name="B" unicode="B" horiz-adv-x="382" 
d="M-23 0l200 700h127q73 0 104 -44.5t9 -118.5l-17 -60q-31 -107 -100 -132q57 -40 31 -130l-17 -60q-23 -82 -64 -118.5t-109 -36.5h-164zM145 377h92q40 0 63.5 22.5t39.5 76.5l20 69q27 99 -68 99h-71zM53 56h98q41 0 64.5 22.5t38.5 76.5l20 69q29 99 -68 99h-77z" />
    <glyph glyph-name="C" unicode="C" horiz-adv-x="389" 
d="M128 -5q-71 0 -101.5 44.5t-9.5 118.5l112 392q23 82 63 118.5t107 36.5h15q71 0 101.5 -44.5t9.5 -118.5l-26 -92h-60l28 100q29 99 -65 99h-13q-39 0 -61.5 -22.5t-38.5 -76.5l-114 -400q-29 -99 65 -99h15q40 0 63.5 22.5t39.5 76.5l28 100h60l-28 -100
q-23 -82 -64 -118.5t-109 -36.5h-17z" />
    <glyph glyph-name="D" unicode="D" horiz-adv-x="410" 
d="M-23 0l200 700h146q73 0 104 -44.5t9 -118.5l-109 -382q-23 -82 -64 -118.5t-109 -36.5h-177zM53 56h111q41 0 64.5 22.5t38.5 76.5l112 390q27 99 -68 99h-90z" />
    <glyph glyph-name="E" unicode="E" horiz-adv-x="327" 
d="M-23 0l200 700h227l-16 -56h-167l-76 -266h158l-16 -56h-158l-76 -266h167l-16 -56h-227z" />
    <glyph glyph-name="F" unicode="F" horiz-adv-x="312" 
d="M-23 0l200 700h232l-16 -56h-172l-76 -266h143l-16 -56h-143l-92 -322h-60z" />
    <glyph glyph-name="G" unicode="G" horiz-adv-x="397" 
d="M111 -5q-64 0 -89.5 44.5t-4.5 118.5l112 392q23 82 63 118.5t107 36.5h15q71 0 101.5 -44.5t9.5 -118.5l-22 -77h-60l24 85q29 99 -65 99h-13q-39 0 -61.5 -22.5t-38.5 -76.5l-114 -400q-29 -99 45 -99h23q78 0 115 103l40 138h-83l16 56h143l-99 -348h-36l-1 47
q-40 -52 -112 -52h-15z" />
    <glyph glyph-name="H" unicode="H" horiz-adv-x="420" 
d="M-23 0l200 700h60l-92 -322h190l92 322h60l-200 -700h-60l92 322h-190l-92 -322h-60z" />
    <glyph glyph-name="I" unicode="I" horiz-adv-x="170" 
d="M-23 0l200 700h60l-200 -700h-60z" />
    <glyph glyph-name="J" unicode="J" horiz-adv-x="337" 
d="M74 -5q-58 0 -82.5 42t-5.5 111l35 122h58l-37 -130q-13 -47 -3 -68t47 -21h14q58 0 84 89l160 560h60l-160 -560q-41 -145 -153 -145h-17z" />
    <glyph glyph-name="K" unicode="K" horiz-adv-x="386" 
d="M-23 0l213 700h60l-98 -322h81l192 322h65l-208 -345v-355h-57v322h-90l-98 -322h-60z" />
    <glyph glyph-name="L" unicode="L" horiz-adv-x="296" 
d="M-23 0l200 700h60l-184 -644h170l-16 -56h-230z" />
    <glyph glyph-name="M" unicode="M" horiz-adv-x="534" 
d="M-18 0l200 700h55l19 -468l279 468h61l-200 -700h-57l72 252l92 298h-5l-259 -434h-28l-17 433h-5l-78 -297l-72 -252h-57z" />
    <glyph glyph-name="N" unicode="N" horiz-adv-x="434" 
d="M-18 0l200 700h55l43 -564h5l82 312l72 252h57l-200 -700h-55l-43 564h-5l-82 -312l-72 -252h-57z" />
    <glyph glyph-name="O" unicode="O" horiz-adv-x="415" 
d="M131 -5q-73 0 -104 44.5t-10 118.5l112 392q23 82 64 118.5t109 36.5h25q73 0 104 -44.5t10 -118.5l-112 -392q-23 -82 -64 -118.5t-109 -36.5h-25zM143 51h23q40 0 63.5 22.5t39.5 76.5l114 400q29 99 -68 99h-23q-40 0 -63.5 -22.5t-39.5 -76.5l-114 -400
q-29 -99 68 -99z" />
    <glyph glyph-name="P" unicode="P" horiz-adv-x="376" 
d="M-23 0l200 700h127q73 0 104 -44.5t9 -118.5l-25 -88q-23 -82 -64 -118.5t-109 -36.5h-98l-84 -294h-60zM137 350h92q41 0 64.5 22.5t38.5 76.5l28 96q27 99 -68 99h-71z" />
    <glyph glyph-name="Q" unicode="Q" horiz-adv-x="414" 
d="M122 -100v95q-68 3 -96.5 47t-8.5 116l112 392q23 82 64 118.5t109 36.5h25q73 0 104 -44.5t10 -118.5l-112 -392q-21 -75 -57 -112t-94 -42v-96h-56zM143 51h23q40 0 63.5 22.5t39.5 76.5l114 400q29 99 -68 99h-23q-40 0 -63.5 -22.5t-39.5 -76.5l-114 -400
q-29 -99 68 -99z" />
    <glyph glyph-name="R" unicode="R" horiz-adv-x="397" 
d="M-23 0l200 700h127q73 0 104 -44.5t9 -118.5l-25 -88q-34 -118 -109 -145v-304h-57v294h-105l-84 -294h-60zM137 350h92q41 0 64.5 22.5t38.5 76.5l28 96q27 99 -68 99h-71z" />
    <glyph glyph-name="S" unicode="S" horiz-adv-x="358" 
d="M103 -5q-72 0 -99 44t-4 119l28 92h59l-32 -107q-28 -92 54 -92h20q38 0 61.5 22.5t39.5 76.5l6 21q8 31 2 62t-22 53l-73 100q-50 66 -21 163l5 16q43 140 160 140h15q65 0 92 -44.5t5 -115.5l-26 -85h-59l31 101q12 39 -1 63.5t-49 24.5h-18q-65 0 -92 -92l-6 -19
q-23 -75 10 -119l73 -100q54 -73 28 -161l-4 -13q-24 -79 -64 -114.5t-105 -35.5h-14z" />
    <glyph glyph-name="T" unicode="T" horiz-adv-x="326" 
d="M60 0l184 644h-123l16 56h306l-16 -56h-123l-184 -644h-60z" />
    <glyph glyph-name="U" unicode="U" horiz-adv-x="424" 
d="M136 -5q-73 0 -104 44.5t-10 118.5l155 542h60l-157 -550q-29 -99 68 -99h21q40 0 63.5 22.5t39.5 76.5l157 550h60l-157 -550q-23 -82 -64 -118.5t-109 -36.5h-23z" />
    <glyph glyph-name="V" unicode="V" horiz-adv-x="382" 
d="M74 0l86 700h62l-50 -355l-36 -259h2l292 614h62l-340 -700h-78z" />
    <glyph glyph-name="W" unicode="W" horiz-adv-x="595" 
d="M80 0l72 700h61l-42 -356l-30 -258h2l215 510h66l-30 -252l-30 -258h2l261 614h60l-304 -700h-78l57 479h-2l-202 -479h-78z" />
    <glyph glyph-name="X" unicode="X" horiz-adv-x="396" 
d="M-60 0l241 363l-34 337h61l21 -286h2l183 286h68l-234 -351l34 -349h-61l-23 293h-2l-186 -293h-70z" />
    <glyph glyph-name="Y" unicode="Y" horiz-adv-x="366" 
d="M81 0l76 266l-10 434h58l3 -183l-5 -170h2l209 353h65l-262 -434l-76 -266h-60z" />
    <glyph glyph-name="Z" unicode="Z" horiz-adv-x="331" 
d="M-59 0l13 46l384 598h-205l16 56h274l-13 -46l-384 -598h222l-16 -56h-291z" />
    <glyph glyph-name="bracketleft" unicode="[" horiz-adv-x="236" 
d="M-55 -155l291 955h156l-16 -52h-100l-259 -851h100l-16 -52h-156z" />
    <glyph glyph-name="backslash" unicode="\" horiz-adv-x="280" 
d="M60 -155l132 955h31l-132 -955h-31z" />
    <glyph glyph-name="bracketright" unicode="]" horiz-adv-x="236" 
d="M-116 -155l16 52h100l259 851h-100l16 52h156l-291 -955h-156z" />
    <glyph glyph-name="asciicircum" unicode="^" 
d="M102 408l208 292h40l30 -292h-57l-17 207l-143 -207h-61z" />
    <glyph glyph-name="underscore" unicode="_" horiz-adv-x="292" 
d="M-125 -155l16 54h292l-16 -54h-292z" />
    <glyph glyph-name="grave" unicode="`" horiz-adv-x="420" 
d="M-52 595l-66 110h68l55 -110h-57z" />
    <glyph glyph-name="a" unicode="a" horiz-adv-x="344" 
d="M82 -5q-59 0 -83.5 41.5t-6.5 104.5l5 18q18 61 49.5 88t93.5 49l102 37q18 6 23 25l18 62q24 84 -55 84h-8q-35 0 -54.5 -19t-32.5 -65l-19 -65h-55l18 62q21 73 56.5 105.5t94.5 32.5h11q64 0 91 -39.5t8 -106.5l-117 -409h-34l-1 46q-42 -51 -97 -51h-7zM92 49h18
q32 0 56.5 24.5t36.5 66.5l41 145l-104 -38q-41 -15 -58.5 -36.5t-28.5 -59.5l-5 -18q-24 -84 44 -84z" />
    <glyph glyph-name="b" unicode="b" horiz-adv-x="378" 
d="M121 -5q-63 0 -79 56l-36 -51h-34l201 705h58l-55 -193q35 43 83 43h7q65 0 92.5 -39.5t8.5 -106.5l-79 -276q-21 -73 -57 -105.5t-97 -32.5h-13zM125 49h18q35 0 54.5 19t32.5 65l81 284q24 84 -57 84h-18q-62 0 -87 -84l-81 -284q-24 -84 57 -84z" />
    <glyph glyph-name="c" unicode="c" horiz-adv-x="355" 
d="M107 -5q-64 0 -91.5 39.5t-8.5 106.5l79 276q21 73 57 105.5t96 32.5h11q63 0 89 -39.5t7 -106.5l-18 -64h-56l20 72q24 84 -54 84h-9q-34 0 -52.5 -18.5t-32.5 -65.5l-81 -284q-24 -84 55 -84h9q35 0 54.5 19t32.5 65l21 72h56l-21 -72q-21 -73 -56.5 -105.5
t-95.5 -32.5h-11z" />
    <glyph glyph-name="d" unicode="d" horiz-adv-x="374" 
d="M109 -5q-65 0 -93 39.5t-9 106.5l79 276q21 73 57.5 105.5t97.5 32.5h13q60 0 79 -46l55 196h58l-201 -705h-34v44q-36 -49 -95 -49h-7zM120 49h18q62 0 87 84l81 284q24 84 -57 84h-18q-35 0 -54.5 -19t-32.5 -65l-81 -284q-24 -84 57 -84z" />
    <glyph glyph-name="e" unicode="e" horiz-adv-x="348" 
d="M107 -5q-64 0 -91.5 39.5t-8.5 106.5l79 276q21 73 57 105.5t96 32.5h11q63 0 89 -39.5t7 -106.5l-46 -159h-203l-35 -122q-24 -79 51 -79h14q34 0 52.5 18.5t32.5 65.5l12 42h55l-12 -42q-21 -73 -56 -105.5t-93 -32.5h-11zM111 300h145l35 121q23 80 -49 80h-13
q-34 0 -52.5 -18.5t-32.5 -65.5z" />
    <glyph glyph-name="f" unicode="f" horiz-adv-x="251" 
d="M9 0l142 496h-77l15 54h77l8 27q20 71 51.5 99.5t88.5 28.5h50l-15 -54h-42q-31 0 -47 -16t-28 -57l-8 -28h96l-15 -54h-96l-142 -496h-58z" />
    <glyph glyph-name="g" unicode="g" horiz-adv-x="381" 
d="M60 -155q-59 0 -83.5 36.5t-7.5 98.5l8 26h54l-11 -38q-19 -69 46 -69h29q35 0 54.5 19t32.5 65l29 103q-33 -41 -81 -41h-7q-65 0 -92.5 39.5t-8.5 106.5l64 226q21 73 57.5 105.5t97.5 32.5h13q63 0 79 -56l35 51h34l-162 -567q-21 -73 -57 -105.5t-97 -32.5h-26z
M134 99h18q63 0 90 94l64 224q24 84 -57 84h-18q-35 0 -54.5 -19t-32.5 -65l-67 -234q-24 -84 57 -84z" />
    <glyph glyph-name="h" unicode="h" horiz-adv-x="373" 
d="M-28 0l201 705h58l-54 -191q33 41 82 41h7q65 0 92.5 -39.5t8.5 -106.5l-117 -409h-58l119 417q24 84 -57 84h-18q-62 0 -87 -84l-119 -417h-58z" />
    <glyph glyph-name="i" unicode="i" horiz-adv-x="163" 
d="M145 619l24 86h66l-24 -86h-66zM-28 0l157 550h58l-157 -550h-58z" />
    <glyph glyph-name="j" unicode="j" horiz-adv-x="195" 
d="M145 619l24 86h66l-24 -86h-66zM-151 -155l15 54h36q29 0 45.5 15.5t27.5 53.5l166 582h58l-166 -581q-19 -66 -51 -95t-87 -29h-44z" />
    <glyph glyph-name="k" unicode="k" horiz-adv-x="340" 
d="M-28 0l201 705h58l-115 -403h75l145 248h61l-157 -267v-283h-56v248h-83l-71 -248h-58z" />
    <glyph glyph-name="l" unicode="l" horiz-adv-x="159" 
d="M-28 0l201 705h58l-201 -705h-58z" />
    <glyph glyph-name="m" unicode="m" horiz-adv-x="573" 
d="M-28 0l157 550h34v-44q36 49 96 49h7q70 0 92 -52q39 52 111 52h7q61 0 85.5 -39.5t5.5 -106.5l-117 -409h-58l119 417q24 84 -47 84h-18q-62 0 -87 -84l-119 -417h-58l119 417q24 84 -47 84h-18q-62 0 -87 -84l-119 -417h-58z" />
    <glyph glyph-name="n" unicode="n" horiz-adv-x="376" 
d="M-28 0l157 550h34v-44q36 49 96 49h7q65 0 92.5 -39.5t8.5 -106.5l-117 -409h-58l119 417q24 84 -57 84h-18q-62 0 -87 -84l-119 -417h-58z" />
    <glyph glyph-name="o" unicode="o" horiz-adv-x="370" 
d="M109 -5q-65 0 -93 39.5t-9 106.5l79 276q21 73 57.5 105.5t97.5 32.5h22q65 0 92.5 -39.5t8.5 -106.5l-79 -276q-21 -73 -57 -105.5t-97 -32.5h-22zM116 49h24q35 0 54.5 19t32.5 65l82 288q23 80 -54 80h-24q-35 0 -54.5 -19t-32.5 -65l-82 -288q-23 -80 54 -80z" />
    <glyph glyph-name="p" unicode="p" horiz-adv-x="378" 
d="M-72 -155l201 705h34v-44q36 49 96 49h7q65 0 92.5 -39.5t8.5 -106.5l-79 -276q-21 -73 -57 -105.5t-97 -32.5h-13q-60 0 -79 45l-56 -195h-58zM125 49h18q35 0 54.5 19t32.5 65l81 284q24 84 -57 84h-18q-62 0 -87 -84l-81 -284q-24 -84 57 -84z" />
    <glyph glyph-name="q" unicode="q" horiz-adv-x="364" 
d="M143 -155l55 192q-36 -42 -82 -42h-7q-65 0 -93 39.5t-9 106.5l79 276q21 73 57.5 105.5t97.5 32.5h13q63 0 79 -56l35 51h34l-201 -705h-58zM120 49h18q62 0 87 84l81 284q24 84 -57 84h-18q-35 0 -54.5 -19t-32.5 -65l-81 -284q-24 -84 57 -84z" />
    <glyph glyph-name="r" unicode="r" horiz-adv-x="307" 
d="M-28 0l157 550h34v-44q36 49 96 49h5q47 0 66.5 -30.5t5.5 -81.5l-40 -140h-56l38 135q18 64 -34 64h-8q-62 0 -87 -85l-119 -417h-58z" />
    <glyph glyph-name="s" unicode="s" horiz-adv-x="332" 
d="M97 -5q-56 0 -82.5 38.5t-10.5 97.5l19 64h54l-21 -74q-9 -33 3 -53.5t47 -20.5h10q35 0 53.5 13.5t26.5 43.5l1 5q20 67 -26 119l-55 59q-55 62 -32 145l2 7q34 116 146 116h9q59 0 83.5 -37t7.5 -99l-19 -64h-54l21 73q11 36 -2 55.5t-44 19.5h-10q-33 0 -51.5 -16.5
t-28.5 -48.5l-2 -7q-19 -68 15 -110l53 -56q68 -79 45 -156l-2 -7q-16 -57 -51.5 -82t-94.5 -25h-10z" />
    <glyph glyph-name="t" unicode="t" horiz-adv-x="251" 
d="M136 0q-60 0 -85 35.5t-8 95.5l105 365h-79l15 54h79l52 96h34l-28 -96h94l-15 -54h-94l-109 -380q-8 -29 5.5 -45.5t42.5 -16.5h28l-15 -54h-22z" />
    <glyph glyph-name="u" unicode="u" horiz-adv-x="376" 
d="M109 -5q-65 0 -93 39.5t-9 106.5l117 409h58l-119 -417q-24 -84 57 -84h18q62 0 87 84l119 417h58l-157 -550h-34v44q-36 -49 -95 -49h-7z" />
    <glyph glyph-name="v" unicode="v" horiz-adv-x="327" 
d="M48 0l46 550h58l-28 -280l-20 -189h3l216 469h65l-269 -550h-71z" />
    <glyph glyph-name="w" unicode="w" horiz-adv-x="529" 
d="M63 0l36 550h58l-23 -281l-17 -188h3l174 387h53l-35 -387h3l104 230l106 239h63l-259 -550h-71l27 333h-2l-149 -333h-71z" />
    <glyph glyph-name="x" unicode="x" horiz-adv-x="327" 
d="M-68 0l202 288l-39 262h57l30 -226h2l148 226h64l-191 -278l34 -272h-58l-25 228h-2l-156 -228h-66z" />
    <glyph glyph-name="y" unicode="y" horiz-adv-x="325" 
d="M-73 -155l15 54h29q28 0 42.5 17.5t42.5 81.5l38 552h58l-28 -280l-19 -185h3l215 465h65l-285 -584q-32 -65 -61 -93t-80 -28h-35z" />
    <glyph glyph-name="z" unicode="z" horiz-adv-x="302" 
d="M-58 0l11 40l311 456h-172l15 54h245l-11 -40l-311 -456h189l-15 -54h-262z" />
    <glyph glyph-name="braceleft" unicode="{" horiz-adv-x="236" 
d="M97 -155q-69 0 -94.5 37.5t-3.5 108.5l87 284q9 29 -21 29h-18l15 52h17q32 0 44 42l85 279q38 123 161 123h33l-16 -52h-32q-67 0 -89 -68l-83 -272q-11 -37 -22 -54t-29 -26q20 -25 2 -82l-84 -276q-23 -73 51 -73h27l-16 -52h-14z" />
    <glyph glyph-name="bar" unicode="|" horiz-adv-x="247" 
d="M112 -155v955h52v-955h-52z" />
    <glyph glyph-name="braceright" unicode="}" horiz-adv-x="252" 
d="M-113 -155l16 52h32q68 0 88 68l88 287q11 37 22 54t29 26q-20 25 -2 82l80 261q21 73 -51 73h-27l16 52h14q68 0 93.5 -37.5t3.5 -108.5l-82 -269q-9 -29 21 -29h18l-15 -52h-17q-32 0 -44 -42l-90 -294q-37 -123 -160 -123h-33z" />
    <glyph glyph-name="asciitilde" unicode="~" horiz-adv-x="412" 
d="M37 251l21 73q9 31 27.5 55.5t47.5 24.5q22 0 33.5 -5t31.5 -24l36 -33q5 -4 14 -13t12 -11.5t9.5 -7t11.5 -6t11 -1.5q8 0 15 8.5t10 18.5l21 74h46l-20 -73q-9 -30 -29 -55t-47 -25q-24 0 -34.5 5t-29.5 24l-36 33q-7 6 -16.5 15t-12.5 12t-8.5 6.5t-10 4.5t-10.5 1
q-8 0 -15.5 -9t-10.5 -18l-21 -74h-46z" />
    <glyph glyph-name="uni00A0" unicode="&#xa0;" horiz-adv-x="600" 
 />
    <glyph glyph-name="exclamdown" unicode="&#xa1;" horiz-adv-x="242" 
d="M156 470l23 80h72l-23 -80h-72zM-25 -150l163 504h47l-144 -504h-66z" />
    <glyph glyph-name="cent" unicode="&#xa2;" horiz-adv-x="440" 
d="M81 -5l19 67q-51 8 -71 46t-3 98l79 276q20 69 53 102t87 36h4l24 85h46l-25 -87q50 -8 68.5 -46.5t1.5 -97.5l-18 -64h-56l21 72q24 84 -54 84h-9q-34 0 -53 -19t-32 -65l-81 -284q-24 -84 55 -84h9q35 0 54.5 19t32.5 65l20 72h56l-20 -72q-20 -69 -53 -102t-87 -36h-3
l-19 -65h-46z" />
    <glyph glyph-name="sterling" unicode="&#xa3;" 
d="M-28 0l17 56q15 5 26 20t16 29.5t17 50.5l51 168h-65l16 52h65l53 174q25 82 63.5 118.5t99.5 36.5h15q62 0 86 -44.5t2 -118.5l-22 -72h-55l25 80q29 99 -49 99h-13q-35 0 -56.5 -22.5t-37.5 -76.5l-53 -174h111l-16 -52h-111l-52 -169q-22 -73 -53 -99h194l42 100h50
l-48 -156h-318z" />
    <glyph glyph-name="yen" unicode="&#xa5;" horiz-adv-x="440" 
d="M104 0l39 135h-120l14 50h120l14 50h-120l14 50h115l-10 415h58l3 -183l-5 -170h2l209 353h65l-250 -415h113l-14 -50h-120l-14 -50h120l-14 -50h-120l-39 -135h-60z" />
    <glyph glyph-name="brokenbar" unicode="&#xa6;" horiz-adv-x="247" 
d="M112 368v432h52v-432h-52zM112 -155v407h52v-407h-52z" />
    <glyph glyph-name="section" unicode="&#xa7;" horiz-adv-x="375" 
d="M111 -5q-59 0 -83 37t-5 99l12 39h54l-15 -48q-11 -37 1.5 -56t43.5 -19h16q61 0 81 65l2 7q10 32 3.5 50t-32.5 31l-60 31q-83 42 -59 125l3 10q15 50 44.5 73.5t76.5 26.5q-29 18 -39 52.5t-2 63.5l2 7q36 116 148 116h9q59 0 83 -37t5 -99l-10 -34h-54l13 43
q11 37 -1.5 56t-43.5 19h-10q-62 0 -81 -65l-2 -7q-9 -32 -2 -49.5t34 -31.5l60 -31q83 -42 59 -125l-3 -10q-15 -48 -44.5 -71t-78.5 -28q31 -17 41 -54t-1 -63l-2 -7q-36 -116 -148 -116h-15zM161 273h50q71 0 90 63l3 8q9 35 2 50t-32 27l-12 6h-49q-34 0 -53 -15.5
t-29 -48.5l-3 -7q-9 -30 -5.5 -46t23.5 -28z" />
    <glyph glyph-name="dieresis" unicode="&#xa8;" horiz-adv-x="420" 
d="M216 619l24 86h66l-24 -86h-66zM336 619l24 86h66l-24 -86h-66z" />
    <glyph glyph-name="copyright" unicode="&#xa9;" horiz-adv-x="600" 
d="M135 -5q-79 0 -107 49t-5 123l117 383q25 83 68 119t112 36h202q79 0 107 -49t5 -123l-116 -383q-26 -83 -69 -119t-112 -36h-202zM150 42h202q38 0 69.5 29.5t46.5 78.5l116 383q18 59 -2.5 92t-74.5 33h-202q-83 0 -115 -108l-117 -383q-18 -59 2.5 -92t74.5 -33z
M264 105q-56 0 -79 34.5t-5 92.5l73 240q20 63 51.5 91.5t83.5 28.5h9q55 0 77 -34.5t5 -92.5l-17 -56h-49l19 63q22 73 -45 73h-8q-29 0 -46 -16.5t-30 -56.5l-75 -247q-22 -73 47 -73h7q30 0 47.5 16.5t30.5 56.5l19 62h48l-19 -62q-19 -64 -50.5 -92t-84.5 -28h-9z" />
    <glyph glyph-name="guillemotleft" unicode="&#xab;" horiz-adv-x="326" 
d="M87 170l-38 117l17 53l86 110h63l-111 -143l37 -137h-54zM197 170l-38 117l17 53l86 110h63l-111 -143l37 -137h-54z" />
    <glyph glyph-name="logicalnot" unicode="&#xac;" 
d="M255 140l43 144h-255l15 52h310l-59 -196h-54z" />
    <glyph glyph-name="registered" unicode="&#xae;" horiz-adv-x="272" 
d="M151 430q-33 0 -42 19.5t-1 46.5l46 150q10 34 26 46.5t42 12.5h89q33 0 42 -19.5t1 -46.5l-46 -150q-10 -34 -25.5 -46.5t-42.5 -12.5h-89zM160 456h89q23 0 33 33l45 149q14 42 -24 42h-89q-24 0 -35 -35l-45 -149q-12 -40 26 -40zM164 481l53 175h49q38 0 25 -42
l-9 -28q-7 -27 -26 -35l-1 -70h-25v68h-17l-21 -68h-28zM220 575h22q10 0 14 12l9 30q3 13 -9 13h-19z" />
    <glyph glyph-name="macron" unicode="&#xaf;" horiz-adv-x="420" 
d="M221 619l16 56h176l-16 -56h-176z" />
    <glyph glyph-name="degree" unicode="&#xb0;" horiz-adv-x="237" 
d="M216 495q-44 0 -74 30t-30 74q0 43 30 72t74 29q43 0 72 -29t29 -72q0 -44 -29 -74t-72 -30zM216 543q23 0 38.5 15.5t15.5 40.5q0 24 -15 39t-39 15q-25 0 -40.5 -15.5t-15.5 -38.5q0 -25 15.5 -40.5t40.5 -15.5z" />
    <glyph glyph-name="plusminus" unicode="&#xb1;" 
d="M173 274l31 101h-128l15 50h128l31 101h54l-31 -101h128l-15 -50h-128l-31 -101h-54zM4 138l16 52h310l-16 -52h-310z" />
    <glyph glyph-name="acute" unicode="&#xb4;" horiz-adv-x="420" 
d="M271 595l69 110h71l-85 -110h-55z" />
    <glyph glyph-name="paragraph" unicode="&#xb6;" horiz-adv-x="369" 
d="M56 0l90 295q-47 10 -65 48.5t-1 94.5l40 129q39 130 149 133h180l-213 -700h-60l196 644h-60l-196 -644h-60z" />
    <glyph glyph-name="periodcentered" unicode="&#xb7;" horiz-adv-x="195" 
d="M54 270l25 80h72l-25 -80h-72z" />
    <glyph glyph-name="cedilla" unicode="&#xb8;" horiz-adv-x="420" 
d="M80 -155l16 120h40v-120h-56z" />
    <glyph glyph-name="guillemotright" unicode="&#xbb;" horiz-adv-x="326" 
d="M17 170l111 144l-37 136h54l37 -117l-16 -53l-86 -110h-63zM127 170l111 144l-37 136h54l37 -117l-16 -53l-86 -110h-63z" />
    <glyph glyph-name="questiondown" unicode="&#xbf;" horiz-adv-x="352" 
d="M209 470l23 80h72l-23 -80h-72zM48 -155q-59 0 -83 44.5t-3 118.5l3 9q17 62 77 123l85 89q38 40 56 91l20 60h53l-16 -59q-21 -69 -75 -126l-86 -89q-41 -44 -54 -88l-7 -25q-26 -92 36 -92h25q34 0 54.5 22.5t36.5 76.5l17 60h56l-17 -60q-23 -82 -61 -118.5
t-100 -36.5h-17z" />
    <glyph glyph-name="Agrave" unicode="&#xc0;" horiz-adv-x="384" 
d="M292 745l-66 110h68l55 -110h-57zM-53 0l324 700h95l-76 -700h-62l20 162h-165l-73 -162h-63zM108 218h147l54 426h-10z" />
    <glyph glyph-name="Aacute" unicode="&#xc1;" horiz-adv-x="384" 
d="M301 745l69 110h71l-85 -110h-55zM-53 0l324 700h95l-76 -700h-62l20 162h-165l-73 -162h-63zM108 218h147l54 426h-10z" />
    <glyph glyph-name="Acircumflex" unicode="&#xc2;" horiz-adv-x="384" 
d="M210 745l125 110h55l57 -110h-57l-35 72l-75 -72h-70zM-53 0l324 700h95l-76 -700h-62l20 162h-165l-73 -162h-63zM108 218h147l54 426h-10z" />
    <glyph glyph-name="Atilde" unicode="&#xc3;" horiz-adv-x="384" 
d="M226 745l16 55q8 27 23.5 43t34.5 16q26 0 48 -20l23 -22q24 -25 28 -25q8 0 12 11l15 56h46l-15 -55q-8 -26 -24.5 -42.5t-35.5 -16.5q-17 0 -25.5 4.5t-20.5 16.5l-33 32q-14 12 -18 12q-9 0 -13 -12l-15 -53h-46zM-53 0l324 700h95l-76 -700h-62l20 162h-165l-73 -162
h-63zM108 218h147l54 426h-10z" />
    <glyph glyph-name="Adieresis" unicode="&#xc4;" horiz-adv-x="384" 
d="M246 769l24 86h66l-24 -86h-66zM366 769l24 86h66l-24 -86h-66zM-53 0l324 700h95l-76 -700h-62l20 162h-165l-73 -162h-63zM108 218h147l54 426h-10z" />
    <glyph glyph-name="Aring" unicode="&#xc5;" horiz-adv-x="384" 
d="M326 726q-37 0 -61.5 24.5t-24.5 61.5q0 36 24.5 60.5t61.5 24.5q35 0 59.5 -24.5t24.5 -60.5q0 -37 -24.5 -61.5t-59.5 -24.5zM326 768q18 0 30.5 12.5t12.5 31.5t-12.5 31.5t-30.5 12.5q-19 0 -32 -12.5t-13 -31.5t13 -31.5t32 -12.5zM-53 0l324 700h95l-76 -700h-62
l20 162h-165l-73 -162h-63zM108 218h147l54 426h-10z" />
    <glyph glyph-name="AE" unicode="&#xc6;" horiz-adv-x="507" 
d="M-53 0l349 700h288l-17 -56h-143l-81 -266h134l-17 -56h-134l-81 -266h143l-17 -56h-203l49 162h-128l-77 -162h-65zM116 218h118l130 426h-45z" />
    <glyph glyph-name="Ccedilla" unicode="&#xc7;" horiz-adv-x="389" 
d="M128 -5q-71 0 -101.5 44.5t-9.5 118.5l112 392q23 82 63 118.5t107 36.5h15q71 0 101.5 -44.5t9.5 -118.5l-26 -92h-60l28 100q29 99 -65 99h-13q-39 0 -61.5 -22.5t-38.5 -76.5l-114 -400q-29 -99 65 -99h15q40 0 63.5 22.5t39.5 76.5l28 100h60l-28 -100
q-23 -82 -64 -118.5t-109 -36.5h-17zM81 -155l16 120h40v-120h-56z" />
    <glyph glyph-name="Egrave" unicode="&#xc8;" horiz-adv-x="327" 
d="M260 745l-66 110h68l55 -110h-57zM-23 0l200 700h227l-16 -56h-167l-76 -266h158l-16 -56h-158l-76 -266h167l-16 -56h-227z" />
    <glyph glyph-name="Eacute" unicode="&#xc9;" horiz-adv-x="327" 
d="M269 745l69 110h71l-85 -110h-55zM-23 0l200 700h227l-16 -56h-167l-76 -266h158l-16 -56h-158l-76 -266h167l-16 -56h-227z" />
    <glyph glyph-name="Ecircumflex" unicode="&#xca;" horiz-adv-x="327" 
d="M178 745l125 110h55l57 -110h-57l-35 72l-75 -72h-70zM-23 0l200 700h227l-16 -56h-167l-76 -266h158l-16 -56h-158l-76 -266h167l-16 -56h-227z" />
    <glyph glyph-name="Edieresis" unicode="&#xcb;" horiz-adv-x="327" 
d="M214 769l24 86h66l-24 -86h-66zM334 769l24 86h66l-24 -86h-66zM-23 0l200 700h227l-16 -56h-167l-76 -266h158l-16 -56h-158l-76 -266h167l-16 -56h-227z" />
    <glyph glyph-name="Igrave" unicode="&#xcc;" horiz-adv-x="170" 
d="M180 745l-66 110h68l55 -110h-57zM-23 0l200 700h60l-200 -700h-60z" />
    <glyph glyph-name="Iacute" unicode="&#xcd;" horiz-adv-x="170" 
d="M189 745l69 110h71l-85 -110h-55zM-23 0l200 700h60l-200 -700h-60z" />
    <glyph glyph-name="Icircumflex" unicode="&#xce;" horiz-adv-x="170" 
d="M98 745l125 110h55l57 -110h-57l-35 72l-75 -72h-70zM-23 0l200 700h60l-200 -700h-60z" />
    <glyph glyph-name="Idieresis" unicode="&#xcf;" horiz-adv-x="170" 
d="M134 769l24 86h66l-24 -86h-66zM254 769l24 86h66l-24 -86h-66zM-23 0l200 700h60l-200 -700h-60z" />
    <glyph glyph-name="Eth" unicode="&#xd0;" horiz-adv-x="479" 
d="M-13 0l93 325h-55l14 50h55l93 325h146q73 0 104 -44.5t9 -118.5l-109 -382q-23 -82 -64 -118.5t-109 -36.5h-177zM63 56h111q41 0 64.5 22.5t38.5 76.5l112 390q27 99 -68 99h-90l-77 -269h103l-14 -50h-103z" />
    <glyph glyph-name="Ntilde" unicode="&#xd1;" horiz-adv-x="434" 
d="M246 745l16 55q8 27 23.5 43t34.5 16q26 0 48 -20l23 -22q24 -25 28 -25q8 0 12 11l15 56h46l-15 -55q-8 -26 -24.5 -42.5t-35.5 -16.5q-17 0 -25.5 4.5t-20.5 16.5l-33 32q-14 12 -18 12q-9 0 -13 -12l-15 -53h-46zM-18 0l200 700h55l43 -564h5l82 312l72 252h57
l-200 -700h-55l-43 564h-5l-82 -312l-72 -252h-57z" />
    <glyph glyph-name="Ograve" unicode="&#xd2;" horiz-adv-x="415" 
d="M307 745l-66 110h68l55 -110h-57zM131 -5q-73 0 -104 44.5t-10 118.5l112 392q23 82 64 118.5t109 36.5h25q73 0 104 -44.5t10 -118.5l-112 -392q-23 -82 -64 -118.5t-109 -36.5h-25zM143 51h23q40 0 63.5 22.5t39.5 76.5l114 400q29 99 -68 99h-23q-40 0 -63.5 -22.5
t-39.5 -76.5l-114 -400q-29 -99 68 -99z" />
    <glyph glyph-name="Oacute" unicode="&#xd3;" horiz-adv-x="415" 
d="M316 745l69 110h71l-85 -110h-55zM131 -5q-73 0 -104 44.5t-10 118.5l112 392q23 82 64 118.5t109 36.5h25q73 0 104 -44.5t10 -118.5l-112 -392q-23 -82 -64 -118.5t-109 -36.5h-25zM143 51h23q40 0 63.5 22.5t39.5 76.5l114 400q29 99 -68 99h-23q-40 0 -63.5 -22.5
t-39.5 -76.5l-114 -400q-29 -99 68 -99z" />
    <glyph glyph-name="Ocircumflex" unicode="&#xd4;" horiz-adv-x="415" 
d="M225 745l125 110h55l57 -110h-57l-35 72l-75 -72h-70zM131 -5q-73 0 -104 44.5t-10 118.5l112 392q23 82 64 118.5t109 36.5h25q73 0 104 -44.5t10 -118.5l-112 -392q-23 -82 -64 -118.5t-109 -36.5h-25zM143 51h23q40 0 63.5 22.5t39.5 76.5l114 400q29 99 -68 99h-23
q-40 0 -63.5 -22.5t-39.5 -76.5l-114 -400q-29 -99 68 -99z" />
    <glyph glyph-name="Otilde" unicode="&#xd5;" horiz-adv-x="415" 
d="M241 745l16 55q8 27 23.5 43t34.5 16q26 0 48 -20l23 -22q24 -25 28 -25q8 0 12 11l15 56h46l-15 -55q-8 -26 -24.5 -42.5t-35.5 -16.5q-17 0 -25.5 4.5t-20.5 16.5l-33 32q-13 12 -18 12q-9 0 -13 -12l-15 -53h-46zM131 -5q-73 0 -104 44.5t-10 118.5l112 392
q23 82 64 118.5t109 36.5h25q73 0 104 -44.5t10 -118.5l-112 -392q-23 -82 -64 -118.5t-109 -36.5h-25zM143 51h23q40 0 63.5 22.5t39.5 76.5l114 400q29 99 -68 99h-23q-40 0 -63.5 -22.5t-39.5 -76.5l-114 -400q-29 -99 68 -99z" />
    <glyph glyph-name="Odieresis" unicode="&#xd6;" horiz-adv-x="415" 
d="M261 769l24 86h66l-24 -86h-66zM381 769l24 86h66l-24 -86h-66zM131 -5q-73 0 -104 44.5t-10 118.5l112 392q23 82 64 118.5t109 36.5h25q73 0 104 -44.5t10 -118.5l-112 -392q-23 -82 -64 -118.5t-109 -36.5h-25zM143 51h23q40 0 63.5 22.5t39.5 76.5l114 400
q29 99 -68 99h-23q-40 0 -63.5 -22.5t-39.5 -76.5l-114 -400q-29 -99 68 -99z" />
    <glyph glyph-name="multiply" unicode="&#xd7;" 
d="M273 168l-70 101l-129 -98l-28 40l129 99l-75 107l43 33l75 -107l138 106l28 -41l-138 -106l70 -101z" />
    <glyph glyph-name="Oslash" unicode="&#xd8;" horiz-adv-x="415" 
d="M498 700l-52 -75q8 -38 -5 -83l-112 -392q-23 -82 -64 -118.5t-109 -36.5h-25q-63 0 -95 34l-20 -29h-56l52 75q-8 38 5 83l112 392q23 82 64 118.5t109 36.5h25q63 0 95 -34l20 29h56zM83 179l301 437q-15 33 -69 33h-23q-40 0 -63.5 -22.5t-39.5 -76.5zM375 521
l-301 -437q15 -33 69 -33h23q40 0 63.5 22.5t39.5 76.5z" />
    <glyph glyph-name="Ugrave" unicode="&#xd9;" horiz-adv-x="424" 
d="M306 745l-66 110h68l55 -110h-57zM136 -5q-73 0 -104 44.5t-10 118.5l155 542h60l-157 -550q-29 -99 68 -99h21q40 0 63.5 22.5t39.5 76.5l157 550h60l-157 -550q-23 -82 -64 -118.5t-109 -36.5h-23z" />
    <glyph glyph-name="Uacute" unicode="&#xda;" horiz-adv-x="424" 
d="M315 745l69 110h71l-85 -110h-55zM136 -5q-73 0 -104 44.5t-10 118.5l155 542h60l-157 -550q-29 -99 68 -99h21q40 0 63.5 22.5t39.5 76.5l157 550h60l-157 -550q-23 -82 -64 -118.5t-109 -36.5h-23z" />
    <glyph glyph-name="Ucircumflex" unicode="&#xdb;" horiz-adv-x="424" 
d="M224 745l125 110h55l57 -110h-57l-35 72l-75 -72h-70zM136 -5q-73 0 -104 44.5t-10 118.5l155 542h60l-157 -550q-29 -99 68 -99h21q40 0 63.5 22.5t39.5 76.5l157 550h60l-157 -550q-23 -82 -64 -118.5t-109 -36.5h-23z" />
    <glyph glyph-name="Udieresis" unicode="&#xdc;" horiz-adv-x="424" 
d="M260 769l24 86h66l-24 -86h-66zM380 769l24 86h66l-24 -86h-66zM136 -5q-73 0 -104 44.5t-10 118.5l155 542h60l-157 -550q-29 -99 68 -99h21q40 0 63.5 22.5t39.5 76.5l157 550h60l-157 -550q-23 -82 -64 -118.5t-109 -36.5h-23z" />
    <glyph glyph-name="Yacute" unicode="&#xdd;" horiz-adv-x="366" 
d="M287 745l69 110h71l-85 -110h-55zM81 0l76 266l-10 434h58l3 -183l-5 -170h2l209 353h65l-262 -434l-76 -266h-60z" />
    <glyph glyph-name="Thorn" unicode="&#xde;" horiz-adv-x="445" 
d="M-23 0l200 700h60l-42 -147h70q73 0 104 -44.5t9 -118.5l-25 -88q-23 -82 -64 -118.5t-109 -36.5h-101l-42 -147h-60zM95 203h95q41 0 64.5 22.5t38.5 76.5l28 96q27 99 -68 99h-74z" />
    <glyph glyph-name="germandbls" unicode="&#xdf;" horiz-adv-x="369" 
d="M172 -5q-93 0 -61 112l17 60h54l-25 -86q-11 -39 27 -39h17q26 0 38 41l9 32q19 68 -2 95l-38 47q-36 46 -17 115l11 36q27 96 103 96h15q19 0 28.5 12.5t19.5 46.5l8 28q16 60 -41 60h-65q-31 0 -47 -16t-28 -57l-165 -578h-58l165 577q20 71 51.5 99.5t88.5 28.5h77
q51 0 73 -31t7 -83l-13 -45q-27 -93 -96 -93h-24q-21 0 -30.5 -10.5t-14.5 -30.5l-12 -41q-15 -51 6 -75l41 -51q37 -44 12 -134l-6 -19q-15 -52 -40 -74.5t-64 -22.5h-21z" />
    <glyph glyph-name="agrave" unicode="&#xe0;" horiz-adv-x="344" 
d="M204 595l-66 110h68l55 -110h-57zM82 -5q-59 0 -83.5 41.5t-6.5 104.5l5 18q18 61 49.5 88t93.5 49l102 37q18 6 23 25l18 62q24 84 -55 84h-8q-35 0 -54.5 -19t-32.5 -65l-19 -65h-55l18 62q21 73 56.5 105.5t94.5 32.5h11q64 0 91 -39.5t8 -106.5l-117 -409h-34l-1 46
q-42 -51 -97 -51h-7zM92 49h18q32 0 56.5 24.5t36.5 66.5l41 145l-104 -38q-41 -15 -58.5 -36.5t-28.5 -59.5l-5 -18q-24 -84 44 -84z" />
    <glyph glyph-name="aacute" unicode="&#xe1;" horiz-adv-x="344" 
d="M213 595l69 110h71l-85 -110h-55zM82 -5q-59 0 -83.5 41.5t-6.5 104.5l5 18q18 61 49.5 88t93.5 49l102 37q18 6 23 25l18 62q24 84 -55 84h-8q-35 0 -54.5 -19t-32.5 -65l-19 -65h-55l18 62q21 73 56.5 105.5t94.5 32.5h11q64 0 91 -39.5t8 -106.5l-117 -409h-34l-1 46
q-42 -51 -97 -51h-7zM92 49h18q32 0 56.5 24.5t36.5 66.5l41 145l-104 -38q-41 -15 -58.5 -36.5t-28.5 -59.5l-5 -18q-24 -84 44 -84z" />
    <glyph glyph-name="acircumflex" unicode="&#xe2;" horiz-adv-x="344" 
d="M122 595l125 110h55l57 -110h-57l-35 72l-75 -72h-70zM82 -5q-59 0 -83.5 41.5t-6.5 104.5l5 18q18 61 49.5 88t93.5 49l102 37q18 6 23 25l18 62q24 84 -55 84h-8q-35 0 -54.5 -19t-32.5 -65l-19 -65h-55l18 62q21 73 56.5 105.5t94.5 32.5h11q64 0 91 -39.5t8 -106.5
l-117 -409h-34l-1 46q-42 -51 -97 -51h-7zM92 49h18q32 0 56.5 24.5t36.5 66.5l41 145l-104 -38q-41 -15 -58.5 -36.5t-28.5 -59.5l-5 -18q-24 -84 44 -84z" />
    <glyph glyph-name="atilde" unicode="&#xe3;" horiz-adv-x="344" 
d="M138 595l16 55q8 27 23.5 43t34.5 16q26 0 48 -20l23 -22q24 -25 28 -25q8 0 12 11l15 56h46l-15 -55q-8 -26 -24.5 -42.5t-35.5 -16.5q-17 0 -25.5 4.5t-20.5 16.5l-33 32q-13 12 -18 12q-9 0 -13 -12l-15 -53h-46zM82 -5q-59 0 -83.5 41.5t-6.5 104.5l5 18
q18 61 49.5 88t93.5 49l102 37q18 6 23 25l18 62q24 84 -55 84h-8q-35 0 -54.5 -19t-32.5 -65l-19 -65h-55l18 62q21 73 56.5 105.5t94.5 32.5h11q64 0 91 -39.5t8 -106.5l-117 -409h-34l-1 46q-42 -51 -97 -51h-7zM92 49h18q32 0 56.5 24.5t36.5 66.5l41 145l-104 -38
q-41 -15 -58.5 -36.5t-28.5 -59.5l-5 -18q-24 -84 44 -84z" />
    <glyph glyph-name="adieresis" unicode="&#xe4;" horiz-adv-x="344" 
d="M158 619l24 86h66l-24 -86h-66zM278 619l24 86h66l-24 -86h-66zM82 -5q-59 0 -83.5 41.5t-6.5 104.5l5 18q18 61 49.5 88t93.5 49l102 37q18 6 23 25l18 62q24 84 -55 84h-8q-35 0 -54.5 -19t-32.5 -65l-19 -65h-55l18 62q21 73 56.5 105.5t94.5 32.5h11q64 0 91 -39.5
t8 -106.5l-117 -409h-34l-1 46q-42 -51 -97 -51h-7zM92 49h18q32 0 56.5 24.5t36.5 66.5l41 145l-104 -38q-41 -15 -58.5 -36.5t-28.5 -59.5l-5 -18q-24 -84 44 -84z" />
    <glyph glyph-name="aring" unicode="&#xe5;" horiz-adv-x="344" 
d="M258 576q-37 0 -61.5 24.5t-24.5 61.5q0 36 24.5 60.5t61.5 24.5q35 0 59.5 -24.5t24.5 -60.5q0 -37 -24.5 -61.5t-59.5 -24.5zM258 618q18 0 30.5 12.5t12.5 31.5t-12.5 31.5t-30.5 12.5q-19 0 -32 -12.5t-13 -31.5t13 -31.5t32 -12.5zM82 -5q-59 0 -83.5 41.5
t-6.5 104.5l5 18q18 61 49.5 88t93.5 49l102 37q18 6 23 25l18 62q24 84 -55 84h-8q-35 0 -54.5 -19t-32.5 -65l-19 -65h-55l18 62q21 73 56.5 105.5t94.5 32.5h11q64 0 91 -39.5t8 -106.5l-117 -409h-34l-1 46q-42 -51 -97 -51h-7zM92 49h18q32 0 56.5 24.5t36.5 66.5
l41 145l-104 -38q-41 -15 -58.5 -36.5t-28.5 -59.5l-5 -18q-24 -84 44 -84z" />
    <glyph glyph-name="ae" unicode="&#xe6;" horiz-adv-x="528" 
d="M82 -5q-59 0 -83.5 41.5t-6.5 104.5l5 18q18 61 49.5 88t93.5 49l92 37q18 6 23 25l18 62q24 84 -45 84h-8q-35 0 -54.5 -19t-32.5 -65l-19 -65h-55l18 62q21 73 56.5 105.5t94.5 32.5h11q61 0 78 -54q38 54 100 54h11q61 0 85.5 -39.5t5.5 -106.5l-46 -159h-193
l-35 -122q-24 -79 46 -79h14q31 0 49 19t31 65l12 42h55l-12 -42q-21 -73 -55 -105.5t-89 -32.5h-11q-68 0 -88 51q-42 -51 -108 -51h-7zM294 300h135l35 121q23 80 -44 80h-13q-31 0 -49 -19t-31 -65zM92 49h18q27 0 49 24.5t34 66.5l41 145l-94 -38q-41 -15 -58.5 -36.5
t-28.5 -59.5l-5 -18q-24 -84 44 -84z" />
    <glyph glyph-name="ccedilla" unicode="&#xe7;" horiz-adv-x="355" 
d="M107 -5q-64 0 -91.5 39.5t-8.5 106.5l79 276q21 73 57 105.5t96 32.5h11q63 0 89 -39.5t7 -106.5l-18 -64h-56l20 72q24 84 -54 84h-9q-34 0 -52.5 -18.5t-32.5 -65.5l-81 -284q-24 -84 55 -84h9q35 0 54.5 19t32.5 65l21 72h56l-21 -72q-21 -73 -56.5 -105.5
t-95.5 -32.5h-11zM82 -155l16 120h40v-120h-56z" />
    <glyph glyph-name="egrave" unicode="&#xe8;" horiz-adv-x="348" 
d="M208 595l-66 110h68l55 -110h-57zM107 -5q-64 0 -91.5 39.5t-8.5 106.5l79 276q21 73 57 105.5t96 32.5h11q63 0 89 -39.5t7 -106.5l-46 -159h-203l-35 -122q-24 -79 51 -79h14q34 0 52.5 18.5t32.5 65.5l12 42h55l-12 -42q-21 -73 -56 -105.5t-93 -32.5h-11zM111 300
h145l35 121q23 80 -49 80h-13q-34 0 -52.5 -18.5t-32.5 -65.5z" />
    <glyph glyph-name="eacute" unicode="&#xe9;" horiz-adv-x="348" 
d="M217 595l69 110h71l-85 -110h-55zM107 -5q-64 0 -91.5 39.5t-8.5 106.5l79 276q21 73 57 105.5t96 32.5h11q63 0 89 -39.5t7 -106.5l-46 -159h-203l-35 -122q-24 -79 51 -79h14q34 0 52.5 18.5t32.5 65.5l12 42h55l-12 -42q-21 -73 -56 -105.5t-93 -32.5h-11zM111 300
h145l35 121q23 80 -49 80h-13q-34 0 -52.5 -18.5t-32.5 -65.5z" />
    <glyph glyph-name="ecircumflex" unicode="&#xea;" horiz-adv-x="348" 
d="M126 595l125 110h55l57 -110h-57l-35 72l-75 -72h-70zM107 -5q-64 0 -91.5 39.5t-8.5 106.5l79 276q21 73 57 105.5t96 32.5h11q63 0 89 -39.5t7 -106.5l-46 -159h-203l-35 -122q-24 -79 51 -79h14q34 0 52.5 18.5t32.5 65.5l12 42h55l-12 -42q-21 -73 -56 -105.5
t-93 -32.5h-11zM111 300h145l35 121q23 80 -49 80h-13q-34 0 -52.5 -18.5t-32.5 -65.5z" />
    <glyph glyph-name="edieresis" unicode="&#xeb;" horiz-adv-x="348" 
d="M162 619l24 86h66l-24 -86h-66zM282 619l24 86h66l-24 -86h-66zM107 -5q-64 0 -91.5 39.5t-8.5 106.5l79 276q21 73 57 105.5t96 32.5h11q63 0 89 -39.5t7 -106.5l-46 -159h-203l-35 -122q-24 -79 51 -79h14q34 0 52.5 18.5t32.5 65.5l12 42h55l-12 -42
q-21 -73 -56 -105.5t-93 -32.5h-11zM111 300h145l35 121q23 80 -49 80h-13q-34 0 -52.5 -18.5t-32.5 -65.5z" />
    <glyph glyph-name="igrave" unicode="&#xec;" horiz-adv-x="220" 
d="M131 595l-66 110h68l55 -110h-57zM-28 0l157 550h58l-157 -550h-58z" />
    <glyph glyph-name="iacute" unicode="&#xed;" horiz-adv-x="220" 
d="M140 595l69 110h71l-85 -110h-55zM-28 0l157 550h58l-157 -550h-58z" />
    <glyph glyph-name="icircumflex" unicode="&#xee;" horiz-adv-x="220" 
d="M49 595l125 110h55l57 -110h-57l-35 72l-75 -72h-70zM-28 0l157 550h58l-157 -550h-58z" />
    <glyph glyph-name="idieresis" unicode="&#xef;" horiz-adv-x="220" 
d="M85 619l24 86h66l-24 -86h-66zM205 619l24 86h66l-24 -86h-66zM-28 0l157 550h58l-157 -550h-58z" />
    <glyph glyph-name="eth" unicode="&#xf0;" horiz-adv-x="370" 
d="M109 -5q-65 0 -93 39.5t-9 106.5l69 241q21 73 56.5 105.5t93.5 32.5h6q46 0 97 -67l6 5l-51 144l-136 -56l14 50l108 45l-23 64h51l16 -46l111 46l-14 -50l-84 -35l29 -85q25 -70 0 -153l-71 -249q-21 -73 -57 -105.5t-97 -32.5h-22zM116 49h24q35 0 54.5 19t32.5 65
l72 253q11 38 -6 59t-48 21h-24q-35 0 -54.5 -19t-32.5 -65l-72 -253q-23 -80 54 -80z" />
    <glyph glyph-name="ntilde" unicode="&#xf1;" horiz-adv-x="376" 
d="M157 595l16 55q8 27 23.5 43t34.5 16q26 0 48 -20l23 -22q24 -25 28 -25q8 0 12 11l15 56h46l-15 -55q-8 -26 -24.5 -42.5t-35.5 -16.5q-17 0 -25.5 4.5t-20.5 16.5l-33 32q-14 12 -18 12q-9 0 -13 -12l-15 -53h-46zM-28 0l157 550h34v-44q36 49 96 49h7q65 0 92.5 -39.5
t8.5 -106.5l-117 -409h-58l119 417q24 84 -57 84h-18q-62 0 -87 -84l-119 -417h-58z" />
    <glyph glyph-name="ograve" unicode="&#xf2;" horiz-adv-x="370" 
d="M232 595l-66 110h68l55 -110h-57zM109 -5q-65 0 -93 39.5t-9 106.5l79 276q21 73 57.5 105.5t97.5 32.5h22q65 0 92.5 -39.5t8.5 -106.5l-79 -276q-21 -73 -57 -105.5t-97 -32.5h-22zM116 49h24q35 0 54.5 19t32.5 65l82 288q23 80 -54 80h-24q-35 0 -54.5 -19t-32.5 -65
l-82 -288q-23 -80 54 -80z" />
    <glyph glyph-name="oacute" unicode="&#xf3;" horiz-adv-x="370" 
d="M241 595l69 110h71l-85 -110h-55zM109 -5q-65 0 -93 39.5t-9 106.5l79 276q21 73 57.5 105.5t97.5 32.5h22q65 0 92.5 -39.5t8.5 -106.5l-79 -276q-21 -73 -57 -105.5t-97 -32.5h-22zM116 49h24q35 0 54.5 19t32.5 65l82 288q23 80 -54 80h-24q-35 0 -54.5 -19t-32.5 -65
l-82 -288q-23 -80 54 -80z" />
    <glyph glyph-name="ocircumflex" unicode="&#xf4;" horiz-adv-x="370" 
d="M150 595l125 110h55l57 -110h-57l-35 72l-75 -72h-70zM109 -5q-65 0 -93 39.5t-9 106.5l79 276q21 73 57.5 105.5t97.5 32.5h22q65 0 92.5 -39.5t8.5 -106.5l-79 -276q-21 -73 -57 -105.5t-97 -32.5h-22zM116 49h24q35 0 54.5 19t32.5 65l82 288q23 80 -54 80h-24
q-35 0 -54.5 -19t-32.5 -65l-82 -288q-23 -80 54 -80z" />
    <glyph glyph-name="otilde" unicode="&#xf5;" horiz-adv-x="370" 
d="M166 595l16 55q8 27 23.5 43t34.5 16q26 0 48 -20l23 -22q24 -25 28 -25q8 0 12 11l15 56h46l-15 -55q-8 -26 -24.5 -42.5t-35.5 -16.5q-17 0 -25.5 4.5t-20.5 16.5l-33 32q-14 12 -18 12q-9 0 -13 -12l-15 -53h-46zM109 -5q-65 0 -93 39.5t-9 106.5l79 276
q21 73 57.5 105.5t97.5 32.5h22q65 0 92.5 -39.5t8.5 -106.5l-79 -276q-21 -73 -57 -105.5t-97 -32.5h-22zM116 49h24q35 0 54.5 19t32.5 65l82 288q23 80 -54 80h-24q-35 0 -54.5 -19t-32.5 -65l-82 -288q-23 -80 54 -80z" />
    <glyph glyph-name="odieresis" unicode="&#xf6;" horiz-adv-x="370" 
d="M186 619l24 86h66l-24 -86h-66zM306 619l24 86h66l-24 -86h-66zM109 -5q-65 0 -93 39.5t-9 106.5l79 276q21 73 57.5 105.5t97.5 32.5h22q65 0 92.5 -39.5t8.5 -106.5l-79 -276q-21 -73 -57 -105.5t-97 -32.5h-22zM116 49h24q35 0 54.5 19t32.5 65l82 288q23 80 -54 80
h-24q-35 0 -54.5 -19t-32.5 -65l-82 -288q-23 -80 54 -80z" />
    <glyph glyph-name="divide" unicode="&#xf7;" 
d="M207 428l27 87h80l-27 -87h-80zM43 284l15 52h322l-15 -52h-322zM109 105l26 87h80l-26 -87h-80z" />
    <glyph glyph-name="oslash" unicode="&#xf8;" horiz-adv-x="370" 
d="M109 -5q-53 0 -83 28l-17 -23h-53l47 64q-8 33 4 77l79 276q21 73 57.5 105.5t97.5 32.5h22q54 0 82 -28l17 23h53l-47 -63q8 -31 -4 -78l-79 -276q-21 -73 -57 -105.5t-97 -32.5h-22zM69 153l240 325q-14 23 -54 23h-24q-35 0 -54.5 -19t-32.5 -65zM116 49h24
q35 0 54.5 19t32.5 65l75 264l-240 -325q14 -23 54 -23z" />
    <glyph glyph-name="ugrave" unicode="&#xf9;" horiz-adv-x="386" 
d="M234 595l-66 110h68l55 -110h-57zM119 -5q-65 0 -93 39.5t-9 106.5l117 409h58l-119 -417q-24 -84 57 -84h18q62 0 87 84l119 417h58l-157 -550h-34v44q-36 -49 -95 -49h-7z" />
    <glyph glyph-name="uacute" unicode="&#xfa;" horiz-adv-x="376" 
d="M233 595l69 110h71l-85 -110h-55zM109 -5q-65 0 -93 39.5t-9 106.5l117 409h58l-119 -417q-24 -84 57 -84h18q62 0 87 84l119 417h58l-157 -550h-34v44q-36 -49 -95 -49h-7z" />
    <glyph glyph-name="ucircumflex" unicode="&#xfb;" horiz-adv-x="376" 
d="M142 595l125 110h55l57 -110h-57l-35 72l-75 -72h-70zM109 -5q-65 0 -93 39.5t-9 106.5l117 409h58l-119 -417q-24 -84 57 -84h18q62 0 87 84l119 417h58l-157 -550h-34v44q-36 -49 -95 -49h-7z" />
    <glyph glyph-name="udieresis" unicode="&#xfc;" horiz-adv-x="376" 
d="M178 619l24 86h66l-24 -86h-66zM298 619l24 86h66l-24 -86h-66zM109 -5q-65 0 -93 39.5t-9 106.5l117 409h58l-119 -417q-24 -84 57 -84h18q62 0 87 84l119 417h58l-157 -550h-34v44q-36 -49 -95 -49h-7z" />
    <glyph glyph-name="yacute" unicode="&#xfd;" horiz-adv-x="325" 
d="M229 595l69 110h71l-85 -110h-55zM-73 -155l15 54h29q28 0 42.5 17.5t42.5 81.5l38 552h58l-28 -280l-19 -185h3l215 465h65l-285 -584q-32 -65 -61 -93t-80 -28h-35z" />
    <glyph glyph-name="thorn" unicode="&#xfe;" horiz-adv-x="373" 
d="M-72 -155l245 860h58l-55 -193q35 43 83 43h7q65 0 92.5 -39.5t8.5 -106.5l-79 -276q-21 -73 -57 -105.5t-97 -32.5h-13q-59 0 -77 53l-58 -203h-58zM125 49h18q35 0 54.5 19t32.5 65l81 284q24 84 -57 84h-18q-62 0 -87 -84l-81 -284q-24 -84 57 -84z" />
    <glyph glyph-name="ydieresis" unicode="&#xff;" horiz-adv-x="325" 
d="M174 619l24 86h66l-24 -86h-66zM294 619l24 86h66l-24 -86h-66zM-73 -155l15 54h29q28 0 42.5 17.5t42.5 81.5l38 552h58l-28 -280l-19 -185h3l215 465h65l-285 -584q-32 -65 -61 -93t-80 -28h-35z" />
    <glyph glyph-name="Amacron" unicode="&#x100;" horiz-adv-x="384" 
d="M251 769l16 56h176l-16 -56h-176zM-53 0l324 700h95l-76 -700h-62l20 162h-165l-73 -162h-63zM108 218h147l54 426h-10z" />
    <glyph glyph-name="amacron" unicode="&#x101;" horiz-adv-x="344" 
d="M163 619l16 56h176l-16 -56h-176zM82 -5q-59 0 -83.5 41.5t-6.5 104.5l5 18q18 61 49.5 88t93.5 49l102 37q18 6 23 25l18 62q24 84 -55 84h-8q-35 0 -54.5 -19t-32.5 -65l-19 -65h-55l18 62q21 73 56.5 105.5t94.5 32.5h11q64 0 91 -39.5t8 -106.5l-117 -409h-34l-1 46
q-42 -51 -97 -51h-7zM92 49h18q32 0 56.5 24.5t36.5 66.5l41 145l-104 -38q-41 -15 -58.5 -36.5t-28.5 -59.5l-5 -18q-24 -84 44 -84z" />
    <glyph glyph-name="Abreve" unicode="&#x102;" horiz-adv-x="384" 
d="M329 760q-41 0 -59 24.5t-6 65.5l1 5h50l-3 -13q-11 -40 24 -40h15q15 0 24 9.5t16 33.5l3 10h52l-3 -10q-13 -45 -36.5 -65t-62.5 -20h-15zM-53 0l324 700h95l-76 -700h-62l20 162h-165l-73 -162h-63zM108 218h147l54 426h-10z" />
    <glyph glyph-name="abreve" unicode="&#x103;" horiz-adv-x="344" 
d="M241 610q-41 0 -59 24.5t-6 65.5l1 5h50l-3 -13q-11 -40 24 -40h15q15 0 24 9.5t16 33.5l3 10h52l-3 -10q-13 -45 -36.5 -65t-62.5 -20h-15zM82 -5q-59 0 -83.5 41.5t-6.5 104.5l5 18q18 61 49.5 88t93.5 49l102 37q18 6 23 25l18 62q24 84 -55 84h-8q-35 0 -54.5 -19
t-32.5 -65l-19 -65h-55l18 62q21 73 56.5 105.5t94.5 32.5h11q64 0 91 -39.5t8 -106.5l-117 -409h-34l-1 46q-42 -51 -97 -51h-7zM92 49h18q32 0 56.5 24.5t36.5 66.5l41 145l-104 -38q-41 -15 -58.5 -36.5t-28.5 -59.5l-5 -18q-24 -84 44 -84z" />
    <glyph glyph-name="Aogonek" unicode="&#x104;" horiz-adv-x="384" 
d="M-53 0l324 700h95l-76 -700h-62l20 162h-165l-73 -162h-63zM108 218h147l54 426h-10zM228 -155v120h35l22 -120h-57z" />
    <glyph glyph-name="aogonek" unicode="&#x105;" horiz-adv-x="344" 
d="M82 -5q-59 0 -83.5 41.5t-6.5 104.5l5 18q18 61 49.5 88t93.5 49l102 37q18 6 23 25l18 62q24 84 -55 84h-8q-35 0 -54.5 -19t-32.5 -65l-19 -65h-55l18 62q21 73 56.5 105.5t94.5 32.5h11q64 0 91 -39.5t8 -106.5l-117 -409h-34l-1 46q-42 -51 -97 -51h-7zM92 49h18
q32 0 56.5 24.5t36.5 66.5l41 145l-104 -38q-41 -15 -58.5 -36.5t-28.5 -59.5l-5 -18q-24 -84 44 -84zM187 -155v120h35l22 -120h-57z" />
    <glyph glyph-name="Cacute" unicode="&#x106;" horiz-adv-x="389" 
d="M294 745l69 110h71l-85 -110h-55zM128 -5q-71 0 -101.5 44.5t-9.5 118.5l112 392q23 82 63 118.5t107 36.5h15q71 0 101.5 -44.5t9.5 -118.5l-26 -92h-60l28 100q29 99 -65 99h-13q-39 0 -61.5 -22.5t-38.5 -76.5l-114 -400q-29 -99 65 -99h15q40 0 63.5 22.5t39.5 76.5
l28 100h60l-28 -100q-23 -82 -64 -118.5t-109 -36.5h-17z" />
    <glyph glyph-name="cacute" unicode="&#x107;" horiz-adv-x="355" 
d="M204 595l69 110h71l-85 -110h-55zM107 -5q-64 0 -91.5 39.5t-8.5 106.5l79 276q21 73 57 105.5t96 32.5h11q63 0 89 -39.5t7 -106.5l-18 -64h-56l20 72q24 84 -54 84h-9q-34 0 -52.5 -18.5t-32.5 -65.5l-81 -284q-24 -84 55 -84h9q35 0 54.5 19t32.5 65l21 72h56l-21 -72
q-21 -73 -56.5 -105.5t-95.5 -32.5h-11z" />
    <glyph glyph-name="Cdotaccent" unicode="&#x10a;" horiz-adv-x="389" 
d="M299 769l24 86h66l-24 -86h-66zM128 -5q-71 0 -101.5 44.5t-9.5 118.5l112 392q23 82 63 118.5t107 36.5h15q71 0 101.5 -44.5t9.5 -118.5l-26 -92h-60l28 100q29 99 -65 99h-13q-39 0 -61.5 -22.5t-38.5 -76.5l-114 -400q-29 -99 65 -99h15q40 0 63.5 22.5t39.5 76.5
l28 100h60l-28 -100q-23 -82 -64 -118.5t-109 -36.5h-17z" />
    <glyph glyph-name="cdotaccent" unicode="&#x10b;" horiz-adv-x="355" 
d="M209 619l24 86h66l-24 -86h-66zM107 -5q-64 0 -91.5 39.5t-8.5 106.5l79 276q21 73 57 105.5t96 32.5h11q63 0 89 -39.5t7 -106.5l-18 -64h-56l20 72q24 84 -54 84h-9q-34 0 -52.5 -18.5t-32.5 -65.5l-81 -284q-24 -84 55 -84h9q35 0 54.5 19t32.5 65l21 72h56l-21 -72
q-21 -73 -56.5 -105.5t-95.5 -32.5h-11z" />
    <glyph glyph-name="Ccaron" unicode="&#x10c;" horiz-adv-x="389" 
d="M298 745l-60 110h57l37 -72l73 72h70l-122 -110h-55zM128 -5q-71 0 -101.5 44.5t-9.5 118.5l112 392q23 82 63 118.5t107 36.5h15q71 0 101.5 -44.5t9.5 -118.5l-26 -92h-60l28 100q29 99 -65 99h-13q-39 0 -61.5 -22.5t-38.5 -76.5l-114 -400q-29 -99 65 -99h15
q40 0 63.5 22.5t39.5 76.5l28 100h60l-28 -100q-23 -82 -64 -118.5t-109 -36.5h-17z" />
    <glyph glyph-name="ccaron" unicode="&#x10d;" horiz-adv-x="355" 
d="M208 595l-60 110h57l37 -72l73 72h70l-122 -110h-55zM107 -5q-64 0 -91.5 39.5t-8.5 106.5l79 276q21 73 57 105.5t96 32.5h11q63 0 89 -39.5t7 -106.5l-18 -64h-56l20 72q24 84 -54 84h-9q-34 0 -52.5 -18.5t-32.5 -65.5l-81 -284q-24 -84 55 -84h9q35 0 54.5 19
t32.5 65l21 72h56l-21 -72q-21 -73 -56.5 -105.5t-95.5 -32.5h-11z" />
    <glyph glyph-name="Dcaron" unicode="&#x10e;" horiz-adv-x="410" 
d="M291 745l-60 110h57l37 -72l73 72h70l-122 -110h-55zM-23 0l200 700h146q73 0 104 -44.5t9 -118.5l-109 -382q-23 -82 -64 -118.5t-109 -36.5h-177zM53 56h111q41 0 64.5 22.5t38.5 76.5l112 390q27 99 -68 99h-90z" />
    <glyph glyph-name="dcaron" unicode="&#x10f;" horiz-adv-x="446" 
d="M109 -5q-65 0 -93 39.5t-9 106.5l79 276q21 73 57.5 105.5t97.5 32.5h13q60 0 79 -46l55 196h58l-201 -705h-34v44q-36 -49 -95 -49h-7zM459 565l40 140h65l-63 -140h-42zM120 49h18q62 0 87 84l81 284q24 84 -57 84h-18q-35 0 -54.5 -19t-32.5 -65l-81 -284
q-24 -84 57 -84z" />
    <glyph glyph-name="Dcroat" unicode="&#x110;" horiz-adv-x="479" 
d="M-13 0l93 325h-55l14 50h55l93 325h146q73 0 104 -44.5t9 -118.5l-109 -382q-23 -82 -64 -118.5t-109 -36.5h-177zM63 56h111q41 0 64.5 22.5t38.5 76.5l112 390q27 99 -68 99h-90l-77 -269h103l-14 -50h-103z" />
    <glyph glyph-name="dcroat" unicode="&#x111;" horiz-adv-x="373" 
d="M108 -5q-65 0 -91.5 39.5t-6.5 106.5l78 256q22 73 59 105.5t98 32.5h13q61 0 78 -46l29 96h-116l14 50h118l21 70h58l-21 -70h54l-14 -50h-56l-178 -585h-34l1 44q-38 -49 -97 -49h-7zM121 49h18q63 0 89 84l80 264q26 84 -55 84h-18q-35 0 -55 -19t-34 -65l-80 -264
q-27 -84 55 -84z" />
    <glyph glyph-name="Emacron" unicode="&#x112;" horiz-adv-x="327" 
d="M219 769l16 56h176l-16 -56h-176zM-23 0l200 700h227l-16 -56h-167l-76 -266h158l-16 -56h-158l-76 -266h167l-16 -56h-227z" />
    <glyph glyph-name="emacron" unicode="&#x113;" horiz-adv-x="348" 
d="M167 619l16 56h176l-16 -56h-176zM107 -5q-64 0 -91.5 39.5t-8.5 106.5l79 276q21 73 57 105.5t96 32.5h11q63 0 89 -39.5t7 -106.5l-46 -159h-203l-35 -122q-24 -79 51 -79h14q34 0 52.5 18.5t32.5 65.5l12 42h55l-12 -42q-21 -73 -56 -105.5t-93 -32.5h-11zM111 300
h145l35 121q23 80 -49 80h-13q-34 0 -52.5 -18.5t-32.5 -65.5z" />
    <glyph glyph-name="Edotaccent" unicode="&#x116;" horiz-adv-x="327" 
d="M274 769l24 86h66l-24 -86h-66zM-23 0l200 700h227l-16 -56h-167l-76 -266h158l-16 -56h-158l-76 -266h167l-16 -56h-227z" />
    <glyph glyph-name="edotaccent" unicode="&#x117;" horiz-adv-x="348" 
d="M222 619l24 86h66l-24 -86h-66zM107 -5q-64 0 -91.5 39.5t-8.5 106.5l79 276q21 73 57 105.5t96 32.5h11q63 0 89 -39.5t7 -106.5l-46 -159h-203l-35 -122q-24 -79 51 -79h14q34 0 52.5 18.5t32.5 65.5l12 42h55l-12 -42q-21 -73 -56 -105.5t-93 -32.5h-11zM111 300h145
l35 121q23 80 -49 80h-13q-34 0 -52.5 -18.5t-32.5 -65.5z" />
    <glyph glyph-name="Eogonek" unicode="&#x118;" horiz-adv-x="327" 
d="M-23 0l200 700h227l-16 -56h-167l-76 -266h158l-16 -56h-158l-76 -266h167l-16 -56h-227zM138 -155v120h35l22 -120h-57z" />
    <glyph glyph-name="eogonek" unicode="&#x119;" horiz-adv-x="348" 
d="M107 -5q-64 0 -91.5 39.5t-8.5 106.5l79 276q21 73 57 105.5t96 32.5h11q63 0 89 -39.5t7 -106.5l-46 -159h-203l-35 -122q-24 -79 51 -79h14q34 0 52.5 18.5t32.5 65.5l12 42h55l-12 -42q-21 -73 -56 -105.5t-93 -32.5h-11zM111 300h145l35 121q23 80 -49 80h-13
q-34 0 -52.5 -18.5t-32.5 -65.5zM138 -155v120h35l22 -120h-57z" />
    <glyph glyph-name="Ecaron" unicode="&#x11a;" horiz-adv-x="327" 
d="M273 745l-60 110h57l37 -72l73 72h70l-122 -110h-55zM-23 0l200 700h227l-16 -56h-167l-76 -266h158l-16 -56h-158l-76 -266h167l-16 -56h-227z" />
    <glyph glyph-name="ecaron" unicode="&#x11b;" horiz-adv-x="348" 
d="M221 595l-60 110h57l37 -72l73 72h70l-122 -110h-55zM107 -5q-64 0 -91.5 39.5t-8.5 106.5l79 276q21 73 57 105.5t96 32.5h11q63 0 89 -39.5t7 -106.5l-46 -159h-203l-35 -122q-24 -79 51 -79h14q34 0 52.5 18.5t32.5 65.5l12 42h55l-12 -42q-21 -73 -56 -105.5
t-93 -32.5h-11zM111 300h145l35 121q23 80 -49 80h-13q-34 0 -52.5 -18.5t-32.5 -65.5z" />
    <glyph glyph-name="Gbreve" unicode="&#x11e;" horiz-adv-x="397" 
d="M318 760q-41 0 -59 24.5t-6 65.5l1 5h50l-3 -13q-11 -40 24 -40h15q15 0 24 9.5t16 33.5l3 10h52l-3 -10q-13 -45 -36.5 -65t-62.5 -20h-15zM111 -5q-64 0 -89.5 44.5t-4.5 118.5l112 392q23 82 63 118.5t107 36.5h15q71 0 101.5 -44.5t9.5 -118.5l-22 -77h-60l24 85
q29 99 -65 99h-13q-39 0 -61.5 -22.5t-38.5 -76.5l-114 -400q-29 -99 45 -99h23q78 0 115 103l40 138h-83l16 56h143l-99 -348h-36l-1 47q-40 -52 -112 -52h-15z" />
    <glyph glyph-name="gbreve" unicode="&#x11f;" horiz-adv-x="381" 
d="M264 610q-41 0 -59 24.5t-6 65.5l1 5h50l-3 -13q-11 -40 24 -40h15q15 0 24 9.5t16 33.5l3 10h52l-3 -10q-13 -45 -36.5 -65t-62.5 -20h-15zM60 -155q-59 0 -83.5 36.5t-7.5 98.5l8 26h54l-11 -38q-19 -69 46 -69h29q35 0 54.5 19t32.5 65l29 103q-33 -41 -81 -41h-7
q-65 0 -92.5 39.5t-8.5 106.5l64 226q21 73 57.5 105.5t97.5 32.5h13q63 0 79 -56l35 51h34l-162 -567q-21 -73 -57 -105.5t-97 -32.5h-26zM134 99h18q63 0 90 94l64 224q24 84 -57 84h-18q-35 0 -54.5 -19t-32.5 -65l-67 -234q-24 -84 57 -84z" />
    <glyph glyph-name="Gdotaccent" unicode="&#x120;" horiz-adv-x="397" 
d="M295 769l24 86h66l-24 -86h-66zM111 -5q-64 0 -89.5 44.5t-4.5 118.5l112 392q23 82 63 118.5t107 36.5h15q71 0 101.5 -44.5t9.5 -118.5l-22 -77h-60l24 85q29 99 -65 99h-13q-39 0 -61.5 -22.5t-38.5 -76.5l-114 -400q-29 -99 45 -99h23q78 0 115 103l40 138h-83l16 56
h143l-99 -348h-36l-1 47q-40 -52 -112 -52h-15z" />
    <glyph glyph-name="gdotaccent" unicode="&#x121;" horiz-adv-x="381" 
d="M241 619l24 86h66l-24 -86h-66zM60 -155q-59 0 -83.5 36.5t-7.5 98.5l8 26h54l-11 -38q-19 -69 46 -69h29q35 0 54.5 19t32.5 65l29 103q-33 -41 -81 -41h-7q-65 0 -92.5 39.5t-8.5 106.5l64 226q21 73 57.5 105.5t97.5 32.5h13q63 0 79 -56l35 51h34l-162 -567
q-21 -73 -57 -105.5t-97 -32.5h-26zM134 99h18q63 0 90 94l64 224q24 84 -57 84h-18q-35 0 -54.5 -19t-32.5 -65l-67 -234q-24 -84 57 -84z" />
    <glyph glyph-name="uni0122" unicode="&#x122;" horiz-adv-x="397" 
d="M111 -5q-64 0 -89.5 44.5t-4.5 118.5l112 392q23 82 63 118.5t107 36.5h15q71 0 101.5 -44.5t9.5 -118.5l-22 -77h-60l24 85q29 99 -65 99h-13q-39 0 -61.5 -22.5t-38.5 -76.5l-114 -400q-29 -99 45 -99h23q78 0 115 103l40 138h-83l16 56h143l-99 -348h-36l-1 47
q-40 -52 -112 -52h-15zM88 -155v120h56l-16 -120h-40z" />
    <glyph glyph-name="uni0123" unicode="&#x123;" horiz-adv-x="427" 
d="M230 606l50 120h40l-34 -120h-56zM60 -155q-59 0 -83.5 36.5t-7.5 98.5l8 26h54l-11 -38q-19 -69 46 -69h29q35 0 54.5 19t32.5 65l29 103q-33 -41 -81 -41h-7q-65 0 -92.5 39.5t-8.5 106.5l64 226q21 73 57.5 105.5t97.5 32.5h13q63 0 79 -56l35 51h34l-162 -567
q-21 -73 -57 -105.5t-97 -32.5h-26zM134 99h18q63 0 90 94l64 224q24 84 -57 84h-18q-35 0 -54.5 -19t-32.5 -65l-67 -234q-24 -84 57 -84z" />
    <glyph glyph-name="Hbar" unicode="&#x126;" horiz-adv-x="448" 
d="M-13 0l153 535h-55l14 50h55l33 115h60l-33 -115h190l33 115h60l-33 -115h62l-14 -50h-62l-153 -535h-60l92 322h-190l-92 -322h-60zM155 378h190l45 157h-190z" />
    <glyph glyph-name="hbar" unicode="&#x127;" horiz-adv-x="373" 
d="M-28 0l167 585h-60l14 50h60l20 70h58l-20 -70h112l-14 -50h-112l-26 -92q32 42 82 42h7q65 0 92.5 -39.5t8.5 -106.5l-111 -389h-58l113 397q24 84 -57 84h-18q-62 0 -87 -84l-113 -397h-58z" />
    <glyph glyph-name="Imacron" unicode="&#x12a;" horiz-adv-x="170" 
d="M139 769l16 56h176l-16 -56h-176zM-23 0l200 700h60l-200 -700h-60z" />
    <glyph glyph-name="imacron" unicode="&#x12b;" horiz-adv-x="220" 
d="M90 619l16 56h176l-16 -56h-176zM-28 0l157 550h58l-157 -550h-58z" />
    <glyph glyph-name="Iogonek" unicode="&#x12e;" horiz-adv-x="170" 
d="M-23 0l200 700h60l-200 -700h-60zM-38 -155v120h35l22 -120h-57z" />
    <glyph glyph-name="iogonek" unicode="&#x12f;" horiz-adv-x="163" 
d="M145 619l24 86h66l-24 -86h-66zM-28 0l157 550h58l-157 -550h-58zM-30 -155v120h35l22 -120h-57z" />
    <glyph glyph-name="Idotaccent" unicode="&#x130;" horiz-adv-x="170" 
d="M194 769l24 86h66l-24 -86h-66zM-23 0l200 700h60l-200 -700h-60z" />
    <glyph glyph-name="dotlessi" unicode="&#x131;" horiz-adv-x="220" 
d="M-28 0l157 550h58l-157 -550h-58z" />
    <glyph glyph-name="uni0136" unicode="&#x136;" horiz-adv-x="386" 
d="M-23 0l213 700h60l-98 -322h81l192 322h65l-208 -345v-355h-57v322h-90l-98 -322h-60zM91 -155v120h56l-16 -120h-40z" />
    <glyph glyph-name="uni0137" unicode="&#x137;" horiz-adv-x="340" 
d="M-28 0l201 705h58l-115 -403h75l145 248h61l-157 -267v-283h-56v248h-83l-71 -248h-58zM67 -155v120h56l-16 -120h-40z" />
    <glyph glyph-name="Lacute" unicode="&#x139;" horiz-adv-x="296" 
d="M189 745l69 110h71l-85 -110h-55zM-23 0l200 700h60l-184 -644h170l-16 -56h-230z" />
    <glyph glyph-name="lacute" unicode="&#x13a;" horiz-adv-x="159" 
d="M197 750l72 110h71l-88 -110h-55zM-28 0l215 705h58l-215 -705h-58z" />
    <glyph glyph-name="uni013B" unicode="&#x13b;" horiz-adv-x="296" 
d="M-23 0l200 700h60l-184 -644h170l-16 -56h-230zM57 -155v120h56l-16 -120h-40z" />
    <glyph glyph-name="uni013C" unicode="&#x13c;" horiz-adv-x="159" 
d="M-28 0l201 705h58l-201 -705h-58zM-34 -155v120h56l-16 -120h-40z" />
    <glyph glyph-name="Lcaron" unicode="&#x13d;" horiz-adv-x="296" 
d="M-23 0l213 700h60l-196 -644h170l-17 -56h-230zM284 560l43 140h65l-66 -140h-42z" />
    <glyph glyph-name="lcaron" unicode="&#x13e;" horiz-adv-x="159" 
d="M-28 0l215 705h58l-215 -705h-58zM249 565l43 140h65l-66 -140h-42z" />
    <glyph glyph-name="Lslash" unicode="&#x141;" horiz-adv-x="296" 
d="M-23 0l75 262l-65 -32l20 67l64 32l106 371h60l-96 -337l174 87l-20 -67l-173 -86l-69 -241h170l-16 -56h-230z" />
    <glyph glyph-name="lslash" unicode="&#x142;" horiz-adv-x="184" 
d="M-18 0l105 367l-69 -31l16 56l69 31l80 282h58l-72 -252l92 42l-16 -56l-92 -42l-113 -397h-58z" />
    <glyph glyph-name="Nacute" unicode="&#x143;" horiz-adv-x="434" 
d="M321 745l69 110h71l-85 -110h-55zM-18 0l200 700h55l43 -564h5l82 312l72 252h57l-200 -700h-55l-43 564h-5l-82 -312l-72 -252h-57z" />
    <glyph glyph-name="nacute" unicode="&#x144;" horiz-adv-x="376" 
d="M232 595l69 110h71l-85 -110h-55zM-28 0l157 550h34v-44q36 49 96 49h7q65 0 92.5 -39.5t8.5 -106.5l-117 -409h-58l119 417q24 84 -57 84h-18q-62 0 -87 -84l-119 -417h-58z" />
    <glyph glyph-name="uni0145" unicode="&#x145;" horiz-adv-x="434" 
d="M-18 0l200 700h55l43 -564h5l82 312l72 252h57l-200 -700h-55l-43 564h-5l-82 -312l-72 -252h-57zM99 -155v120h56l-16 -120h-40z" />
    <glyph glyph-name="uni0146" unicode="&#x146;" horiz-adv-x="376" 
d="M-28 0l157 550h34v-44q36 49 96 49h7q65 0 92.5 -39.5t8.5 -106.5l-117 -409h-58l119 417q24 84 -57 84h-18q-62 0 -87 -84l-119 -417h-58zM83 -155v120h56l-16 -120h-40z" />
    <glyph glyph-name="Ncaron" unicode="&#x147;" horiz-adv-x="434" 
d="M325 745l-60 110h57l37 -72l73 72h70l-122 -110h-55zM-18 0l200 700h55l43 -564h5l82 312l72 252h57l-200 -700h-55l-43 564h-5l-82 -312l-72 -252h-57z" />
    <glyph glyph-name="ncaron" unicode="&#x148;" horiz-adv-x="376" 
d="M236 595l-60 110h57l37 -72l73 72h70l-122 -110h-55zM-28 0l157 550h34v-44q36 49 96 49h7q65 0 92.5 -39.5t8.5 -106.5l-117 -409h-58l119 417q24 84 -57 84h-18q-62 0 -87 -84l-119 -417h-58z" />
    <glyph glyph-name="Eng" unicode="&#x14a;" horiz-adv-x="436" 
d="M122 -155l15 54h26q25 0 39 13t24 46l14 50l-42 556h-5l-82 -312l-72 -252h-57l200 700h55l43 -564h5l82 312l72 252h57l-211 -738q-17 -62 -47.5 -89.5t-82.5 -27.5h-33z" />
    <glyph glyph-name="eng" unicode="&#x14b;" horiz-adv-x="425" 
d="M76 -155l15 54h26q25 0 39 13t24 46l131 459q24 84 -57 84h-18q-62 0 -87 -84l-119 -417h-58l157 550h34v-44q36 49 96 49h7q65 0 92.5 -39.5t8.5 -106.5l-128 -447q-17 -62 -47.5 -89.5t-82.5 -27.5h-33z" />
    <glyph glyph-name="Omacron" unicode="&#x14c;" horiz-adv-x="415" 
d="M266 769l16 56h176l-16 -56h-176zM131 -5q-73 0 -104 44.5t-10 118.5l112 392q23 82 64 118.5t109 36.5h25q73 0 104 -44.5t10 -118.5l-112 -392q-23 -82 -64 -118.5t-109 -36.5h-25zM143 51h23q40 0 63.5 22.5t39.5 76.5l114 400q29 99 -68 99h-23q-40 0 -63.5 -22.5
t-39.5 -76.5l-114 -400q-29 -99 68 -99z" />
    <glyph glyph-name="omacron" unicode="&#x14d;" horiz-adv-x="370" 
d="M191 619l16 56h176l-16 -56h-176zM109 -5q-65 0 -93 39.5t-9 106.5l79 276q21 73 57.5 105.5t97.5 32.5h22q65 0 92.5 -39.5t8.5 -106.5l-79 -276q-21 -73 -57 -105.5t-97 -32.5h-22zM116 49h24q35 0 54.5 19t32.5 65l82 288q23 80 -54 80h-24q-35 0 -54.5 -19t-32.5 -65
l-82 -288q-23 -80 54 -80z" />
    <glyph glyph-name="Ohungarumlaut" unicode="&#x150;" horiz-adv-x="415" 
d="M249 745l69 110h71l-85 -110h-55zM361 745l69 110h71l-85 -110h-55zM131 -5q-73 0 -104 44.5t-10 118.5l112 392q23 82 64 118.5t109 36.5h25q73 0 104 -44.5t10 -118.5l-112 -392q-23 -82 -64 -118.5t-109 -36.5h-25zM143 51h23q40 0 63.5 22.5t39.5 76.5l114 400
q29 99 -68 99h-23q-40 0 -63.5 -22.5t-39.5 -76.5l-114 -400q-29 -99 68 -99z" />
    <glyph glyph-name="ohungarumlaut" unicode="&#x151;" horiz-adv-x="370" 
d="M174 595l69 110h71l-85 -110h-55zM286 595l69 110h71l-85 -110h-55zM109 -5q-65 0 -93 39.5t-9 106.5l79 276q21 73 57.5 105.5t97.5 32.5h22q65 0 92.5 -39.5t8.5 -106.5l-79 -276q-21 -73 -57 -105.5t-97 -32.5h-22zM116 49h24q35 0 54.5 19t32.5 65l82 288
q23 80 -54 80h-24q-35 0 -54.5 -19t-32.5 -65l-82 -288q-23 -80 54 -80z" />
    <glyph glyph-name="OE" unicode="&#x152;" horiz-adv-x="534" 
d="M132 0q-73 0 -104 44.5t-9 118.5l109 382q23 82 64 118.5t109 36.5h310l-16 -56h-157l-76 -266h148l-16 -56h-148l-76 -266h157l-16 -56h-279zM144 56h66l168 588h-87q-41 0 -64.5 -22.5t-38.5 -76.5l-112 -390q-27 -99 68 -99z" />
    <glyph glyph-name="oe" unicode="&#x153;" horiz-adv-x="549" 
d="M102 -5q-62 0 -88 39.5t-7 106.5l79 276q21 73 56 105.5t92 32.5h11q73 0 93 -55q38 55 100 55h11q61 0 85.5 -39.5t5.5 -106.5l-46 -159h-193l-35 -122q-24 -79 46 -79h14q31 0 49 19t31 65l12 42h55l-12 -42q-21 -73 -55 -105.5t-89 -32.5h-11q-68 0 -88 50
q-38 -50 -105 -50h-11zM109 49h13q35 0 54.5 19t32.5 65l82 288q23 80 -54 80h-13q-31 0 -49 -19t-31 -65l-82 -288q-23 -80 47 -80zM315 300h135l35 121q23 80 -44 80h-13q-31 0 -49 -19t-31 -65z" />
    <glyph glyph-name="Racute" unicode="&#x154;" horiz-adv-x="397" 
d="M269 745l69 110h71l-85 -110h-55zM-23 0l200 700h127q73 0 104 -44.5t9 -118.5l-25 -88q-34 -118 -109 -145v-304h-57v294h-105l-84 -294h-60zM137 350h92q41 0 64.5 22.5t38.5 76.5l28 96q27 99 -68 99h-71z" />
    <glyph glyph-name="racute" unicode="&#x155;" horiz-adv-x="307" 
d="M213 595l69 110h71l-85 -110h-55zM-28 0l157 550h34v-44q36 49 96 49h5q47 0 66.5 -30.5t5.5 -81.5l-40 -140h-56l38 135q18 64 -34 64h-8q-62 0 -87 -85l-119 -417h-58z" />
    <glyph glyph-name="uni0156" unicode="&#x156;" horiz-adv-x="397" 
d="M-23 0l200 700h127q73 0 104 -44.5t9 -118.5l-25 -88q-34 -118 -109 -145v-304h-57v294h-105l-84 -294h-60zM137 350h92q41 0 64.5 22.5t38.5 76.5l28 96q27 99 -68 99h-71zM94 -155v120h56l-16 -120h-40z" />
    <glyph glyph-name="uni0157" unicode="&#x157;" horiz-adv-x="307" 
d="M-28 0l157 550h34v-44q36 49 96 49h5q47 0 66.5 -30.5t5.5 -81.5l-40 -140h-56l38 135q18 64 -34 64h-8q-62 0 -87 -85l-119 -417h-58zM-31 -155v120h56l-16 -120h-40z" />
    <glyph glyph-name="Rcaron" unicode="&#x158;" horiz-adv-x="397" 
d="M273 745l-60 110h57l37 -72l73 72h70l-122 -110h-55zM-23 0l200 700h127q73 0 104 -44.5t9 -118.5l-25 -88q-34 -118 -109 -145v-304h-57v294h-105l-84 -294h-60zM137 350h92q41 0 64.5 22.5t38.5 76.5l28 96q27 99 -68 99h-71z" />
    <glyph glyph-name="rcaron" unicode="&#x159;" horiz-adv-x="307" 
d="M217 595l-60 110h57l37 -72l73 72h70l-122 -110h-55zM-28 0l157 550h34v-44q36 49 96 49h5q47 0 66.5 -30.5t5.5 -81.5l-40 -140h-56l38 135q18 64 -34 64h-8q-62 0 -87 -85l-119 -417h-58z" />
    <glyph glyph-name="Sacute" unicode="&#x15a;" horiz-adv-x="358" 
d="M273 745l69 110h71l-85 -110h-55zM103 -5q-72 0 -99 44t-4 119l28 92h59l-32 -107q-28 -92 54 -92h20q38 0 61.5 22.5t39.5 76.5l6 21q8 31 2 62t-22 53l-73 100q-50 66 -21 163l5 16q43 140 160 140h15q65 0 92 -44.5t5 -115.5l-26 -85h-59l31 101q12 39 -1 63.5
t-49 24.5h-18q-65 0 -92 -92l-6 -19q-23 -75 10 -119l73 -100q54 -73 28 -161l-4 -13q-24 -79 -64 -114.5t-105 -35.5h-14z" />
    <glyph glyph-name="sacute" unicode="&#x15b;" horiz-adv-x="332" 
d="M218 595l69 110h71l-85 -110h-55zM97 -5q-56 0 -82.5 38.5t-10.5 97.5l19 64h54l-21 -74q-9 -33 3 -53.5t47 -20.5h10q35 0 53.5 13.5t26.5 43.5l1 5q20 67 -26 119l-55 59q-55 62 -32 145l2 7q34 116 146 116h9q59 0 83.5 -37t7.5 -99l-19 -64h-54l21 73q11 36 -2 55.5
t-44 19.5h-10q-33 0 -51.5 -16.5t-28.5 -48.5l-2 -7q-19 -68 15 -110l53 -56q68 -79 45 -156l-2 -7q-16 -57 -51.5 -82t-94.5 -25h-10z" />
    <glyph glyph-name="Scedilla" unicode="&#x15e;" horiz-adv-x="358" 
d="M103 -5q-72 0 -99 44t-4 119l28 92h59l-32 -107q-28 -92 54 -92h20q38 0 61.5 22.5t39.5 76.5l6 21q8 31 2 62t-22 53l-73 100q-50 66 -21 163l5 16q43 140 160 140h15q65 0 92 -44.5t5 -115.5l-26 -85h-59l31 101q12 39 -1 63.5t-49 24.5h-18q-65 0 -92 -92l-6 -19
q-23 -75 10 -119l73 -100q54 -73 28 -161l-4 -13q-24 -79 -64 -114.5t-105 -35.5h-14zM80 -155l16 120h40v-120h-56z" />
    <glyph glyph-name="scedilla" unicode="&#x15f;" horiz-adv-x="332" 
d="M97 -5q-56 0 -82.5 38.5t-10.5 97.5l19 64h54l-21 -74q-9 -33 3 -53.5t47 -20.5h10q35 0 53.5 13.5t26.5 43.5l1 5q20 67 -26 119l-55 59q-55 62 -32 145l2 7q34 116 146 116h9q59 0 83.5 -37t7.5 -99l-19 -64h-54l21 73q11 36 -2 55.5t-44 19.5h-10q-33 0 -51.5 -16.5
t-28.5 -48.5l-2 -7q-19 -68 15 -110l53 -56q68 -79 45 -156l-2 -7q-16 -57 -51.5 -82t-94.5 -25h-10zM68 -155l16 120h40v-120h-56z" />
    <glyph glyph-name="Scaron" unicode="&#x160;" horiz-adv-x="358" 
d="M277 745l-60 110h57l37 -72l73 72h70l-122 -110h-55zM103 -5q-72 0 -99 44t-4 119l28 92h59l-32 -107q-28 -92 54 -92h20q38 0 61.5 22.5t39.5 76.5l6 21q8 31 2 62t-22 53l-73 100q-50 66 -21 163l5 16q43 140 160 140h15q65 0 92 -44.5t5 -115.5l-26 -85h-59l31 101
q12 39 -1 63.5t-49 24.5h-18q-65 0 -92 -92l-6 -19q-23 -75 10 -119l73 -100q54 -73 28 -161l-4 -13q-24 -79 -64 -114.5t-105 -35.5h-14z" />
    <glyph glyph-name="scaron" unicode="&#x161;" horiz-adv-x="332" 
d="M222 595l-60 110h57l37 -72l73 72h70l-122 -110h-55zM97 -5q-56 0 -82.5 38.5t-10.5 97.5l19 64h54l-21 -74q-9 -33 3 -53.5t47 -20.5h10q35 0 53.5 13.5t26.5 43.5l1 5q20 67 -26 119l-55 59q-55 62 -32 145l2 7q34 116 146 116h9q59 0 83.5 -37t7.5 -99l-19 -64h-54
l21 73q11 36 -2 55.5t-44 19.5h-10q-33 0 -51.5 -16.5t-28.5 -48.5l-2 -7q-19 -68 15 -110l53 -56q68 -79 45 -156l-2 -7q-16 -57 -51.5 -82t-94.5 -25h-10z" />
    <glyph glyph-name="uni0162" unicode="&#x162;" horiz-adv-x="326" 
d="M60 0l184 644h-123l16 56h306l-16 -56h-123l-184 -644h-60zM46 -155l16 120h40v-120h-56z" />
    <glyph glyph-name="uni0163" unicode="&#x163;" horiz-adv-x="251" 
d="M136 0q-60 0 -85 35.5t-8 95.5l105 365h-79l15 54h79l52 96h34l-28 -96h94l-15 -54h-94l-109 -380q-8 -29 5.5 -45.5t42.5 -16.5h28l-15 -54h-22zM44 -155l16 120h40v-120h-56z" />
    <glyph glyph-name="Tcaron" unicode="&#x164;" horiz-adv-x="326" 
d="M276 745l-60 110h57l37 -72l73 72h70l-122 -110h-55zM60 0l184 644h-123l16 56h306l-16 -56h-123l-184 -644h-60z" />
    <glyph glyph-name="tcaron" unicode="&#x165;" horiz-adv-x="251" 
d="M136 0q-60 0 -84 35.5t-6 95.5l112 365h-80l17 54h79l53 96h34l-29 -96h56l50 155h65l-73 -155h-4l-17 -54h-94l-116 -380q-9 -29 4.5 -45.5t42.5 -16.5h28l-16 -54h-22z" />
    <glyph glyph-name="Tbar" unicode="&#x166;" horiz-adv-x="395" 
d="M60 0l93 325h-88l14 50h88l77 269h-123l16 56h306l-16 -56h-123l-77 -269h92l-14 -50h-92l-93 -325h-60z" />
    <glyph glyph-name="tbar" unicode="&#x167;" horiz-adv-x="306" 
d="M136 0q-60 0 -85 35.5t-8 95.5l34 119h-73l14 50h73l57 196h-79l15 54h79l52 96h34l-28 -96h94l-15 -54h-94l-56 -196h148l-14 -50h-149l-38 -134q-8 -29 5.5 -45.5t42.5 -16.5h28l-15 -54h-22z" />
    <glyph glyph-name="Umacron" unicode="&#x16a;" horiz-adv-x="424" 
d="M265 769l16 56h176l-16 -56h-176zM136 -5q-73 0 -104 44.5t-10 118.5l155 542h60l-157 -550q-29 -99 68 -99h21q40 0 63.5 22.5t39.5 76.5l157 550h60l-157 -550q-23 -82 -64 -118.5t-109 -36.5h-23z" />
    <glyph glyph-name="umacron" unicode="&#x16b;" horiz-adv-x="376" 
d="M183 619l16 56h176l-16 -56h-176zM109 -5q-65 0 -93 39.5t-9 106.5l117 409h58l-119 -417q-24 -84 57 -84h18q62 0 87 84l119 417h58l-157 -550h-34v44q-36 -49 -95 -49h-7z" />
    <glyph glyph-name="Uring" unicode="&#x16e;" horiz-adv-x="424" 
d="M340 726q-37 0 -61.5 24.5t-24.5 61.5q0 36 24.5 60.5t61.5 24.5q35 0 59.5 -24.5t24.5 -60.5q0 -37 -24.5 -61.5t-59.5 -24.5zM340 768q18 0 30.5 12.5t12.5 31.5t-12.5 31.5t-30.5 12.5q-19 0 -32 -12.5t-13 -31.5t13 -31.5t32 -12.5zM136 -5q-73 0 -104 44.5
t-10 118.5l155 542h60l-157 -550q-29 -99 68 -99h21q40 0 63.5 22.5t39.5 76.5l157 550h60l-157 -550q-23 -82 -64 -118.5t-109 -36.5h-23z" />
    <glyph glyph-name="uring" unicode="&#x16f;" horiz-adv-x="376" 
d="M258 576q-37 0 -61.5 24.5t-24.5 61.5q0 36 24.5 60.5t61.5 24.5q35 0 59.5 -24.5t24.5 -60.5q0 -37 -24.5 -61.5t-59.5 -24.5zM258 618q18 0 30.5 12.5t12.5 31.5t-12.5 31.5t-30.5 12.5q-19 0 -32 -12.5t-13 -31.5t13 -31.5t32 -12.5zM109 -5q-65 0 -93 39.5t-9 106.5
l117 409h58l-119 -417q-24 -84 57 -84h18q62 0 87 84l119 417h58l-157 -550h-34v44q-36 -49 -95 -49h-7z" />
    <glyph glyph-name="Uhungarumlaut" unicode="&#x170;" horiz-adv-x="424" 
d="M248 745l69 110h71l-85 -110h-55zM360 745l69 110h71l-85 -110h-55zM136 -5q-73 0 -104 44.5t-10 118.5l155 542h60l-157 -550q-29 -99 68 -99h21q40 0 63.5 22.5t39.5 76.5l157 550h60l-157 -550q-23 -82 -64 -118.5t-109 -36.5h-23z" />
    <glyph glyph-name="uhungarumlaut" unicode="&#x171;" horiz-adv-x="376" 
d="M166 595l69 110h71l-85 -110h-55zM278 595l69 110h71l-85 -110h-55zM109 -5q-65 0 -93 39.5t-9 106.5l117 409h58l-119 -417q-24 -84 57 -84h18q62 0 87 84l119 417h58l-157 -550h-34v44q-36 -49 -95 -49h-7z" />
    <glyph glyph-name="Uogonek" unicode="&#x172;" horiz-adv-x="424" 
d="M136 -5q-73 0 -104 44.5t-10 118.5l155 542h60l-157 -550q-29 -99 68 -99h21q40 0 63.5 22.5t39.5 76.5l157 550h60l-157 -550q-23 -82 -64 -118.5t-109 -36.5h-23zM133 -155v120h35l22 -120h-57z" />
    <glyph glyph-name="uogonek" unicode="&#x173;" horiz-adv-x="376" 
d="M109 -5q-65 0 -93 39.5t-9 106.5l117 409h58l-119 -417q-24 -84 57 -84h18q62 0 87 84l119 417h58l-157 -550h-34v44q-36 -49 -95 -49h-7zM210 -155v120h35l22 -120h-57z" />
    <glyph glyph-name="Wcircumflex" unicode="&#x174;" horiz-adv-x="595" 
d="M313 745l125 110h55l57 -110h-57l-35 72l-75 -72h-70zM80 0l72 700h61l-42 -356l-30 -258h2l215 510h66l-30 -252l-30 -258h2l261 614h60l-304 -700h-78l57 479h-2l-202 -479h-78z" />
    <glyph glyph-name="wcircumflex" unicode="&#x175;" horiz-adv-x="529" 
d="M237 595l125 110h55l57 -110h-57l-35 72l-75 -72h-70zM63 0l36 550h58l-23 -281l-17 -188h3l174 387h53l-35 -387h3l104 230l106 239h63l-259 -550h-71l27 333h-2l-149 -333h-71z" />
    <glyph glyph-name="Ycircumflex" unicode="&#x176;" horiz-adv-x="366" 
d="M196 745l125 110h55l57 -110h-57l-35 72l-75 -72h-70zM81 0l76 266l-10 434h58l3 -183l-5 -170h2l209 353h65l-262 -434l-76 -266h-60z" />
    <glyph glyph-name="ycircumflex" unicode="&#x177;" horiz-adv-x="325" 
d="M138 595l125 110h55l57 -110h-57l-35 72l-75 -72h-70zM-73 -155l15 54h29q28 0 42.5 17.5t42.5 81.5l38 552h58l-28 -280l-19 -185h3l215 465h65l-285 -584q-32 -65 -61 -93t-80 -28h-35z" />
    <glyph glyph-name="Ydieresis" unicode="&#x178;" horiz-adv-x="366" 
d="M232 769l24 86h66l-24 -86h-66zM352 769l24 86h66l-24 -86h-66zM81 0l76 266l-10 434h58l3 -183l-5 -170h2l209 353h65l-262 -434l-76 -266h-60z" />
    <glyph glyph-name="Zacute" unicode="&#x179;" horiz-adv-x="331" 
d="M262 745l69 110h71l-85 -110h-55zM-59 0l13 46l384 598h-205l16 56h274l-13 -46l-384 -598h222l-16 -56h-291z" />
    <glyph glyph-name="zacute" unicode="&#x17a;" horiz-adv-x="302" 
d="M218 595l69 110h71l-85 -110h-55zM-58 0l11 40l311 456h-172l15 54h245l-11 -40l-311 -456h189l-15 -54h-262z" />
    <glyph glyph-name="Zdotaccent" unicode="&#x17b;" horiz-adv-x="331" 
d="M267 769l24 86h66l-24 -86h-66zM-59 0l13 46l384 598h-205l16 56h274l-13 -46l-384 -598h222l-16 -56h-291z" />
    <glyph glyph-name="zdotaccent" unicode="&#x17c;" horiz-adv-x="302" 
d="M223 619l24 86h66l-24 -86h-66zM-58 0l11 40l311 456h-172l15 54h245l-11 -40l-311 -456h189l-15 -54h-262z" />
    <glyph glyph-name="Zcaron" unicode="&#x17d;" horiz-adv-x="331" 
d="M266 745l-60 110h57l37 -72l73 72h70l-122 -110h-55zM-59 0l13 46l384 598h-205l16 56h274l-13 -46l-384 -598h222l-16 -56h-291z" />
    <glyph glyph-name="zcaron" unicode="&#x17e;" horiz-adv-x="302" 
d="M222 595l-60 110h57l37 -72l73 72h70l-122 -110h-55zM-58 0l11 40l311 456h-172l15 54h245l-11 -40l-311 -456h189l-15 -54h-262z" />
    <glyph glyph-name="uni0218" unicode="&#x218;" horiz-adv-x="358" 
d="M103 -5q-72 0 -99 44t-4 119l28 92h59l-32 -107q-28 -92 54 -92h20q38 0 61.5 22.5t39.5 76.5l6 21q8 31 2 62t-22 53l-73 100q-50 66 -21 163l5 16q43 140 160 140h15q65 0 92 -44.5t5 -115.5l-26 -85h-59l31 101q12 39 -1 63.5t-49 24.5h-18q-65 0 -92 -92l-6 -19
q-23 -75 10 -119l73 -100q54 -73 28 -161l-4 -13q-24 -79 -64 -114.5t-105 -35.5h-14zM81 -155v120h56l-16 -120h-40z" />
    <glyph glyph-name="uni0219" unicode="&#x219;" horiz-adv-x="332" 
d="M97 -5q-56 0 -82.5 38.5t-10.5 97.5l19 64h54l-21 -74q-9 -33 3 -53.5t47 -20.5h10q35 0 53.5 13.5t26.5 43.5l1 5q20 67 -26 119l-55 59q-55 62 -32 145l2 7q34 116 146 116h9q59 0 83.5 -37t7.5 -99l-19 -64h-54l21 73q11 36 -2 55.5t-44 19.5h-10q-33 0 -51.5 -16.5
t-28.5 -48.5l-2 -7q-19 -68 15 -110l53 -56q68 -79 45 -156l-2 -7q-16 -57 -51.5 -82t-94.5 -25h-10zM69 -155v120h56l-16 -120h-40z" />
    <glyph glyph-name="uni021A" unicode="&#x21a;" horiz-adv-x="326" 
d="M60 0l184 644h-123l16 56h306l-16 -56h-123l-184 -644h-60zM58 -155v120h56l-16 -120h-40z" />
    <glyph glyph-name="uni021B" unicode="&#x21b;" horiz-adv-x="251" 
d="M136 0q-60 0 -85 35.5t-8 95.5l105 365h-79l15 54h79l52 96h34l-28 -96h94l-15 -54h-94l-109 -380q-8 -29 5.5 -45.5t42.5 -16.5h28l-15 -54h-22zM45 -155v120h56l-16 -120h-40z" />
    <glyph glyph-name="uni02BC" unicode="&#x2bc;" horiz-adv-x="150" 
d="M107 545l49 160h67l-68 -160h-48z" />
    <glyph glyph-name="circumflex" unicode="&#x2c6;" horiz-adv-x="420" 
d="M178 595l125 110h55l57 -110h-57l-35 72l-75 -72h-70z" />
    <glyph glyph-name="caron" unicode="&#x2c7;" horiz-adv-x="420" 
d="M275 595l-60 110h57l37 -72l73 72h70l-122 -110h-55z" />
    <glyph glyph-name="breve" unicode="&#x2d8;" horiz-adv-x="420" 
d="M299 610q-41 0 -59 24.5t-6 65.5l1 5h50l-3 -13q-11 -40 24 -40h15q15 0 24 9.5t16 33.5l3 10h52l-3 -10q-13 -45 -36.5 -65t-62.5 -20h-15z" />
    <glyph glyph-name="dotaccent" unicode="&#x2d9;" horiz-adv-x="420" 
d="M276 619l24 86h66l-24 -86h-66z" />
    <glyph glyph-name="ring" unicode="&#x2da;" horiz-adv-x="420" 
d="M296 576q-37 0 -61.5 24.5t-24.5 61.5q0 36 24.5 60.5t61.5 24.5q35 0 59.5 -24.5t24.5 -60.5q0 -37 -24.5 -61.5t-59.5 -24.5zM296 618q18 0 30.5 12.5t12.5 31.5t-12.5 31.5t-30.5 12.5q-19 0 -32 -12.5t-13 -31.5t13 -31.5t32 -12.5z" />
    <glyph glyph-name="ogonek" unicode="&#x2db;" horiz-adv-x="420" 
d="M132 -155v120h35l22 -120h-57z" />
    <glyph glyph-name="tilde" unicode="&#x2dc;" horiz-adv-x="420" 
d="M202 595l16 55q8 27 23.5 43t34.5 16q26 0 48 -20l23 -22q24 -25 28 -25q8 0 12 11l15 56h46l-15 -55q-8 -26 -24.5 -42.5t-35.5 -16.5q-17 0 -25.5 4.5t-20.5 16.5l-33 32q-14 12 -18 12q-9 0 -13 -12l-15 -53h-46z" />
    <glyph glyph-name="hungarumlaut" unicode="&#x2dd;" horiz-adv-x="420" 
d="M204 595l69 110h71l-85 -110h-55zM316 595l69 110h71l-85 -110h-55z" />
    <glyph glyph-name="uni0326" unicode="&#x326;" horiz-adv-x="0" 
d="M-339 -155v120h56l-16 -120h-40z" />
    <glyph glyph-name="uni0401" unicode="&#x401;" horiz-adv-x="327" 
d="M214 769l24 86h66l-24 -86h-66zM334 769l24 86h66l-24 -86h-66zM-23 0l200 700h227l-16 -56h-167l-76 -266h158l-16 -56h-158l-76 -266h167l-16 -56h-227z" />
    <glyph glyph-name="uni0404" unicode="&#x404;" horiz-adv-x="389" 
d="M128 -5q-71 0 -101.5 44.5t-9.5 118.5l112 392q23 82 63 118.5t107 36.5h15q71 0 101.5 -44.5t9.5 -118.5l-26 -92h-60l28 100q29 99 -65 99h-13q-39 0 -61.5 -22.5t-38.5 -76.5l-49 -172h130l-16 -56h-130l-49 -172q-29 -99 65 -99h15q40 0 63.5 22.5t39.5 76.5l28 100
h60l-28 -100q-23 -82 -64 -118.5t-109 -36.5h-17z" />
    <glyph glyph-name="uni0406" unicode="&#x406;" horiz-adv-x="170" 
d="M-23 0l200 700h60l-200 -700h-60z" />
    <glyph glyph-name="uni0407" unicode="&#x407;" horiz-adv-x="200" 
d="M134 769l24 86h66l-24 -86h-66zM254 769l24 86h66l-24 -86h-66zM-23 0l200 700h60l-200 -700h-60z" />
    <glyph glyph-name="uni040E" unicode="&#x40e;" horiz-adv-x="350" 
d="M308 760q-41 0 -59 24.5t-6 65.5l1 5h50l-3 -13q-11 -40 24 -40h15q15 0 23.5 9.5t16.5 33.5l3 10h52l-3 -10q-14 -45 -37 -65t-62 -20h-15zM-9 0l16 56h21q30 0 46 16.5t42 75.5l26 552h61l-18 -278l-20 -193h4l91 187l139 284h63l-293 -580q-33 -64 -64 -92t-87 -28
h-27z" />
    <glyph glyph-name="uni0410" unicode="&#x410;" horiz-adv-x="384" 
d="M-53 0l324 700h95l-76 -700h-62l20 162h-165l-73 -162h-63zM108 218h147l54 426h-10z" />
    <glyph glyph-name="uni0411" unicode="&#x411;" horiz-adv-x="365" 
d="M-23 0l200 700h259l-16 -56h-199l-76 -266h70q73 0 104 -44.5t9 -118.5l-17 -60q-23 -82 -64 -118.5t-109 -36.5h-161zM53 56h95q41 0 64.5 22.5t38.5 76.5l20 68q27 99 -68 99h-74z" />
    <glyph glyph-name="uni0412" unicode="&#x412;" horiz-adv-x="382" 
d="M-23 0l200 700h127q73 0 104 -44.5t9 -118.5l-17 -60q-31 -107 -100 -132q57 -40 31 -130l-17 -60q-23 -82 -64 -118.5t-109 -36.5h-164zM145 377h92q40 0 63.5 22.5t39.5 76.5l20 69q27 99 -68 99h-71zM53 56h98q41 0 64.5 22.5t38.5 76.5l20 69q29 99 -68 99h-77z" />
    <glyph glyph-name="uni0413" unicode="&#x413;" horiz-adv-x="295" 
d="M-23 0l200 700h230l-16 -56h-170l-184 -644h-60z" />
    <glyph glyph-name="uni0414" unicode="&#x414;" horiz-adv-x="433" 
d="M-92 -100l45 156h41q37 62 117 323l99 321h281l-184 -644h48l-45 -156h-50l18 100h-279l-41 -100h-50zM52 56h195l168 588h-161l-83 -268q-71 -233 -119 -320z" />
    <glyph glyph-name="uni0415" unicode="&#x415;" horiz-adv-x="327" 
d="M-23 0l200 700h227l-16 -56h-167l-76 -266h158l-16 -56h-158l-76 -266h167l-16 -56h-227z" />
    <glyph glyph-name="uni0416" unicode="&#x416;" horiz-adv-x="570" 
d="M-23 0l200 700h60l-92 -322h140l92 322h60l-92 -322h140l92 322h60l-200 -700h-60l92 322h-140l-92 -322h-60l92 322h-140l-92 -322h-60z" />
    <glyph glyph-name="uni0417" unicode="&#x417;" horiz-adv-x="369" 
d="M115 -5q-71 0 -101.5 44.5t-9.5 118.5l26 92h60l-31 -111q-26 -88 58 -88h23q39 0 61.5 22.5t38.5 76.5l21 74q29 99 -68 99h-34l16 54h49q40 0 63.5 22.5t39.5 76.5l22 78q28 95 -56 95h-19q-39 0 -61.5 -22.5t-38.5 -76.5l-28 -100h-60l28 100q23 82 63 118.5t107 36.5
h17q68 0 97 -44.5t8 -118.5l-19 -65q-31 -106 -100 -131q57 -42 31 -131l-18 -65q-23 -82 -63 -118.5t-107 -36.5h-15z" />
    <glyph glyph-name="uni0418" unicode="&#x418;" horiz-adv-x="436" 
d="M-23 0l200 700h57l-72 -252l-94 -304h5l357 556h57l-200 -700h-57l72 252l94 304h-5l-357 -556h-57z" />
    <glyph glyph-name="uni0419" unicode="&#x419;" horiz-adv-x="436" 
d="M341 760q-41 0 -59 24.5t-6 65.5l1 5h50l-3 -13q-11 -40 24 -40h15q15 0 24 9.5t16 33.5l3 10h52l-3 -10q-13 -45 -36.5 -65t-62.5 -20h-15zM-23 0l200 700h57l-72 -252l-94 -304h5l357 556h57l-200 -700h-57l72 252l94 304h-5l-357 -556h-57z" />
    <glyph glyph-name="uni041A" unicode="&#x41a;" horiz-adv-x="386" 
d="M-23 0l213 700h60l-98 -322h81l192 322h65l-208 -345v-355h-57v322h-90l-98 -322h-60z" />
    <glyph glyph-name="uni041B" unicode="&#x41b;" horiz-adv-x="418" 
d="M-49 -1l-17 1l16 56h26q27 0 44.5 38t76.5 228l117 378h271l-200 -700h-60l184 644h-150l-108 -345q-45 -146 -65 -203q-20 -54 -49 -77.5t-86 -19.5z" />
    <glyph glyph-name="uni041C" unicode="&#x41c;" horiz-adv-x="524" 
d="M-23 0l200 700h55l19 -468l279 468h61l-200 -700h-57l72 252l92 298h-5l-259 -434h-28l-17 433h-5l-78 -297l-72 -252h-57z" />
    <glyph glyph-name="uni041D" unicode="&#x41d;" horiz-adv-x="420" 
d="M-23 0l200 700h60l-92 -322h190l92 322h60l-200 -700h-60l92 322h-190l-92 -322h-60z" />
    <glyph glyph-name="uni041E" unicode="&#x41e;" horiz-adv-x="415" 
d="M131 -5q-73 0 -104 44.5t-10 118.5l112 392q23 82 64 118.5t109 36.5h25q73 0 104 -44.5t10 -118.5l-112 -392q-23 -82 -64 -118.5t-109 -36.5h-25zM143 51h23q40 0 63.5 22.5t39.5 76.5l114 400q29 99 -68 99h-23q-40 0 -63.5 -22.5t-39.5 -76.5l-114 -400
q-29 -99 68 -99z" />
    <glyph glyph-name="uni041F" unicode="&#x41f;" horiz-adv-x="420" 
d="M-23 0l200 700h310l-200 -700h-60l184 644h-190l-184 -644h-60z" />
    <glyph glyph-name="uni0420" unicode="&#x420;" horiz-adv-x="376" 
d="M-23 0l200 700h127q73 0 104 -44.5t9 -118.5l-25 -88q-23 -82 -64 -118.5t-109 -36.5h-98l-84 -294h-60zM137 350h92q41 0 64.5 22.5t38.5 76.5l28 96q27 99 -68 99h-71z" />
    <glyph glyph-name="uni0421" unicode="&#x421;" horiz-adv-x="389" 
d="M128 -5q-71 0 -101.5 44.5t-9.5 118.5l112 392q23 82 63 118.5t107 36.5h15q71 0 101.5 -44.5t9.5 -118.5l-26 -92h-60l28 100q29 99 -65 99h-13q-39 0 -61.5 -22.5t-38.5 -76.5l-114 -400q-29 -99 65 -99h15q40 0 63.5 22.5t39.5 76.5l28 100h60l-28 -100
q-23 -82 -64 -118.5t-109 -36.5h-17z" />
    <glyph glyph-name="uni0422" unicode="&#x422;" horiz-adv-x="326" 
d="M60 0l184 644h-123l16 56h306l-16 -56h-123l-184 -644h-60z" />
    <glyph glyph-name="uni0423" unicode="&#x423;" horiz-adv-x="350" 
d="M7 56h21q30 0 46 16.5t42 75.5l26 552h61l-18 -278l-20 -193h4l91 187l139 284h63l-293 -580q-33 -64 -64 -92t-87 -28h-27z" />
    <glyph glyph-name="uni0424" unicode="&#x424;" horiz-adv-x="550" 
d="M164 -10l29 100h-40q-73 0 -104 44.5t-10 118.5l67 233q23 82 64 118.5t109 36.5h71l25 89h60l-25 -89h40q73 0 104 -44.5t10 -118.5l-67 -233q-23 -82 -64 -118.5t-109 -36.5h-71l-29 -100h-60zM165 146h43l126 439h-65q-41 0 -64.5 -22.5t-38.5 -76.5l-69 -241
q-29 -99 68 -99zM268 146h66q40 0 63.5 22.5t39.5 76.5l69 241q27 99 -68 99h-44z" />
    <glyph glyph-name="uni0425" unicode="&#x425;" horiz-adv-x="396" 
d="M-60 0l241 363l-34 337h61l21 -286h2l183 286h68l-234 -351l34 -349h-61l-23 293h-2l-186 -293h-70z" />
    <glyph glyph-name="uni0426" unicode="&#x426;" horiz-adv-x="429" 
d="M256 -100l18 100h-297l200 700h60l-184 -644h190l184 644h60l-184 -644h48l-45 -156h-50z" />
    <glyph glyph-name="uni0427" unicode="&#x427;" horiz-adv-x="392" 
d="M199 0l84 294h-82q-73 0 -104 44.5t-9 118.5l69 243h60l-72 -251q-27 -99 68 -99h86l100 350h60l-200 -700h-60z" />
    <glyph glyph-name="uni0428" unicode="&#x428;" horiz-adv-x="570" 
d="M-23 0l200 700h60l-184 -644h140l184 644h60l-184 -644h140l184 644h60l-200 -700h-460z" />
    <glyph glyph-name="uni0429" unicode="&#x429;" horiz-adv-x="579" 
d="M406 -100l18 100h-447l200 700h60l-184 -644h140l184 644h60l-184 -644h140l184 644h60l-184 -644h48l-45 -156h-50z" />
    <glyph glyph-name="uni042A" unicode="&#x42a;" horiz-adv-x="430" 
d="M36 0l185 646h-114l15 54h174l-92 -322h66q73 0 104 -44.5t9 -118.5l-17 -60q-23 -82 -64 -118.5t-109 -36.5h-157zM112 56h91q41 0 64.5 22.5t38.5 76.5l20 68q27 99 -68 99h-70z" />
    <glyph glyph-name="uni042B" unicode="&#x42b;" horiz-adv-x="562" 
d="M-23 0l200 700h60l-92 -322h66q73 0 104 -44.5t9 -118.5l-17 -60q-23 -82 -64 -118.5t-109 -36.5h-157zM369 0l200 700h60l-200 -700h-60zM53 56h91q41 0 64.5 22.5t38.5 76.5l20 68q27 99 -68 99h-70z" />
    <glyph glyph-name="uni042C" unicode="&#x42c;" horiz-adv-x="371" 
d="M-23 0l200 700h60l-92 -322h66q73 0 104 -44.5t9 -118.5l-17 -60q-23 -82 -64 -118.5t-109 -36.5h-157zM53 56h91q41 0 64.5 22.5t38.5 76.5l20 68q27 99 -68 99h-70z" />
    <glyph glyph-name="uni042D" unicode="&#x42d;" horiz-adv-x="388" 
d="M118 -5q-71 0 -101.5 44.5t-9.5 118.5l26 92h60l-31 -109q-26 -90 60 -90h21q39 0 61.5 22.5t38.5 76.5l49 172h-130l16 56h130l51 177q26 94 -62 94h-20q-40 0 -63.5 -22.5t-39.5 -76.5l-28 -100h-60l28 100q23 82 64 118.5t109 36.5h17q71 0 101.5 -44.5t9.5 -118.5
l-112 -392q-23 -82 -63 -118.5t-107 -36.5h-15z" />
    <glyph glyph-name="uni042E" unicode="&#x42e;" horiz-adv-x="576" 
d="M297 -5q-71 0 -100.5 44.5t-8.5 118.5l47 164h-106l-92 -322h-60l200 700h60l-92 -322h106l49 172q23 82 63 118.5t105 36.5h25q71 0 100.5 -44.5t8.5 -118.5l-112 -392q-23 -82 -63 -118.5t-105 -36.5h-25zM309 51h23q38 0 60 22.5t38 76.5l114 400q29 99 -63 99h-23
q-38 0 -60 -22.5t-38 -76.5l-114 -400q-29 -99 63 -99z" />
    <glyph glyph-name="uni042F" unicode="&#x42f;" horiz-adv-x="391" 
d="M-64 0l200 314q-63 42 -34 143l25 88q23 82 64 118.5t109 36.5h158l-200 -700h-60l84 294h-93l-186 -294h-67zM227 350h71l84 294h-92q-41 0 -64.5 -22.5t-38.5 -76.5l-28 -96q-27 -99 68 -99z" />
    <glyph glyph-name="uni0430" unicode="&#x430;" horiz-adv-x="344" 
d="M82 -5q-59 0 -83.5 41.5t-6.5 104.5l5 18q18 61 49.5 88t93.5 49l102 37q18 6 23 25l18 62q24 84 -55 84h-8q-35 0 -54.5 -19t-32.5 -65l-19 -65h-55l18 62q21 73 56.5 105.5t94.5 32.5h11q64 0 91 -39.5t8 -106.5l-117 -409h-34l-1 46q-42 -51 -97 -51h-7zM92 49h18
q32 0 56.5 24.5t36.5 66.5l41 145l-104 -38q-41 -15 -58.5 -36.5t-28.5 -59.5l-5 -18q-24 -84 44 -84z" />
    <glyph glyph-name="uni0431" unicode="&#x431;" horiz-adv-x="371" 
d="M109 -5q-65 0 -93 39.5t-9 106.5l114 397q20 73 56.5 105.5t97.5 32.5h75q24 0 29 20l2 9h56l-1 -5q-12 -41 -35.5 -59.5t-65.5 -18.5h-73q-35 0 -54.5 -19t-32.5 -65l-17 -59q36 48 86 48h7q65 0 92.5 -39.5t8.5 -106.5l-71 -248q-21 -73 -57 -105.5t-97 -32.5h-18z
M115 49h21q35 0 54.5 19t32.5 65l74 260q23 80 -54 80h-21q-63 0 -87 -84l-74 -260q-23 -80 54 -80z" />
    <glyph glyph-name="uni0432" unicode="&#x432;" horiz-adv-x="338" 
d="M-28 0l157 550h110q64 0 93 -37.5t12 -95.5l-8 -30q-27 -94 -87 -117q46 -37 27 -102l-9 -30q-20 -73 -56.5 -105.5t-97.5 -32.5h-141zM115 300h75q34 0 54 19.5t34 67.5l7 26q24 84 -57 84h-57zM44 53h78q35 0 54.5 19t32.5 65l9 30q23 82 -53 82h-65z" />
    <glyph glyph-name="uni0433" unicode="&#x433;" horiz-adv-x="278" 
d="M-28 0l157 550h205l-15 -54h-147l-142 -496h-58z" />
    <glyph glyph-name="uni0434" unicode="&#x434;" horiz-adv-x="366" 
d="M247 -90h-48l16 90h-218l-45 -90h-46l41 144h34q32 55 89 243l78 253h239l-142 -496h43zM39 54h148l127 442h-124l-63 -201q-54 -171 -88 -241z" />
    <glyph glyph-name="uni0435" unicode="&#x435;" horiz-adv-x="348" 
d="M107 -5q-64 0 -91.5 39.5t-8.5 106.5l79 276q21 73 57 105.5t96 32.5h11q63 0 89 -39.5t7 -106.5l-46 -159h-203l-35 -122q-24 -79 51 -79h14q34 0 52.5 18.5t32.5 65.5l12 42h55l-12 -42q-21 -73 -56 -105.5t-93 -32.5h-11zM111 300h145l35 121q23 80 -49 80h-13
q-34 0 -52.5 -18.5t-32.5 -65.5z" />
    <glyph glyph-name="uni0436" unicode="&#x436;" horiz-adv-x="513" 
d="M-28 0l157 550h58l-71 -248h118l71 248h58l-71 -248h118l71 248h58l-157 -550h-58l71 248h-118l-71 -248h-58l71 248h-118l-71 -248h-58z" />
    <glyph glyph-name="uni0437" unicode="&#x437;" horiz-adv-x="328" 
d="M85 -5q-62 0 -88.5 39.5t-7.5 106.5l16 54h57l-18 -63q-24 -83 49 -83h13q34 0 52.5 18.5t32.5 65.5l10 34q23 82 -53 82h-35l15 51h45q34 0 54 19.5t34 67.5l8 30q24 84 -51 84h-9q-32 0 -50 -18.5t-32 -65.5l-18 -62h-57l18 62q21 73 56 105.5t93 32.5h11
q63 0 88.5 -39.5t6.5 -106.5l-6 -22q-27 -94 -87 -117q46 -37 27 -102l-10 -35q-21 -73 -56.5 -105.5t-95.5 -32.5h-12z" />
    <glyph glyph-name="uni0438" unicode="&#x438;" horiz-adv-x="376" 
d="M-28 0l157 550h55l-56 -198l-71 -225h4l289 423h55l-157 -550h-55l57 198l70 225h-4l-289 -423h-55z" />
    <glyph glyph-name="uni0439" unicode="&#x439;" horiz-adv-x="376" 
d="M283 610q-41 0 -59 24.5t-6 65.5l1 5h50l-3 -13q-11 -40 24 -40h15q15 0 24 9.5t16 33.5l3 10h52l-3 -10q-13 -45 -36.5 -65t-62.5 -20h-15zM-28 0l157 550h55l-56 -198l-71 -225h4l289 423h55l-157 -550h-55l57 198l70 225h-4l-289 -423h-55z" />
    <glyph glyph-name="uni043A" unicode="&#x43a;" horiz-adv-x="340" 
d="M-28 0l157 550h58l-71 -248h75l145 248h61l-157 -267v-283h-56v248h-83l-71 -248h-58z" />
    <glyph glyph-name="uni043B" unicode="&#x43b;" horiz-adv-x="368" 
d="M-57 -1l-11 1l15 54h17q15 0 22 4.5t20.5 32t29 75t46.5 147.5l74 237h237l-157 -550h-58l141 495h-121l-64 -205q-45 -148 -63 -197q-19 -52 -48 -75.5t-80 -18.5z" />
    <glyph glyph-name="uni043C" unicode="&#x43c;" horiz-adv-x="473" 
d="M-28 0l157 550h58l24 -359l225 359h63l-157 -550h-55l57 198l72 234h-4l-213 -341h-28l-23 340h-4l-60 -233l-57 -198h-55z" />
    <glyph glyph-name="uni043D" unicode="&#x43d;" horiz-adv-x="379" 
d="M-28 0l157 550h58l-71 -248h160l71 248h58l-157 -550h-58l71 248h-160l-71 -248h-58z" />
    <glyph glyph-name="uni043E" unicode="&#x43e;" horiz-adv-x="370" 
d="M109 -5q-65 0 -93 39.5t-9 106.5l79 276q21 73 57.5 105.5t97.5 32.5h22q65 0 92.5 -39.5t8.5 -106.5l-79 -276q-21 -73 -57 -105.5t-97 -32.5h-22zM116 49h24q35 0 54.5 19t32.5 65l82 288q23 80 -54 80h-24q-35 0 -54.5 -19t-32.5 -65l-82 -288q-23 -80 54 -80z" />
    <glyph glyph-name="uni043F" unicode="&#x43f;" horiz-adv-x="379" 
d="M-28 0l157 550h276l-157 -550h-58l142 496h-160l-142 -496h-58z" />
    <glyph glyph-name="uni0440" unicode="&#x440;" horiz-adv-x="378" 
d="M-72 -155l201 705h34v-44q36 49 96 49h7q65 0 92.5 -39.5t8.5 -106.5l-79 -276q-21 -73 -57 -105.5t-97 -32.5h-13q-60 0 -79 45l-56 -195h-58zM125 49h18q35 0 54.5 19t32.5 65l81 284q24 84 -57 84h-18q-62 0 -87 -84l-81 -284q-24 -84 57 -84z" />
    <glyph glyph-name="uni0441" unicode="&#x441;" horiz-adv-x="355" 
d="M107 -5q-64 0 -91.5 39.5t-8.5 106.5l79 276q21 73 57 105.5t96 32.5h11q63 0 89 -39.5t7 -106.5l-18 -64h-56l20 72q24 84 -54 84h-9q-34 0 -52.5 -18.5t-32.5 -65.5l-81 -284q-24 -84 55 -84h9q35 0 54.5 19t32.5 65l21 72h56l-21 -72q-21 -73 -56.5 -105.5
t-95.5 -32.5h-11z" />
    <glyph glyph-name="uni0442" unicode="&#x442;" horiz-adv-x="303" 
d="M45 0l142 496h-108l15 54h274l-15 -54h-108l-142 -496h-58z" />
    <glyph glyph-name="uni0443" unicode="&#x443;" horiz-adv-x="325" 
d="M-73 -155l15 54h29q28 0 42.5 17.5t42.5 81.5l38 552h58l-28 -280l-19 -185h3l215 465h65l-285 -584q-32 -65 -61 -93t-80 -28h-35z" />
    <glyph glyph-name="uni0444" unicode="&#x444;" horiz-adv-x="536" 
d="M117 -155l56 196q-36 -46 -82 -46h-8q-56 0 -75.5 39t-0.5 105l80 281q38 135 146 135h4q52 0 69 -48l56 198h58l-56 -197q36 47 83 47h8q56 0 75.5 -39.5t-0.5 -104.5l-80 -281q-38 -135 -145 -135h-4q-52 0 -70 47l-56 -197h-58zM102 49h12q60 0 85 84l81 284
q12 42 -0.5 63t-44.5 21h-12q-55 0 -79 -84l-81 -284q-24 -84 39 -84zM302 49h12q55 0 79 84l81 284q24 84 -39 84h-12q-60 0 -85 -84l-81 -284q-12 -42 0.5 -63t44.5 -21z" />
    <glyph glyph-name="uni0445" unicode="&#x445;" horiz-adv-x="327" 
d="M-68 0l202 288l-39 262h57l30 -226h2l148 226h64l-191 -278l34 -272h-58l-25 228h-2l-156 -228h-66z" />
    <glyph glyph-name="uni0446" unicode="&#x446;" horiz-adv-x="372" 
d="M210 -90l16 90h-254l157 550h58l-142 -496h153l142 496h58l-142 -496h43l-41 -144h-48z" />
    <glyph glyph-name="uni0447" unicode="&#x447;" horiz-adv-x="347" 
d="M158 0l67 233h-57q-68 0 -97 41t-9 111l47 165h58l-51 -179q-24 -84 57 -84h67l75 263h58l-157 -550h-58z" />
    <glyph glyph-name="uni0448" unicode="&#x448;" horiz-adv-x="513" 
d="M-28 0l157 550h58l-142 -496h118l142 496h58l-142 -496h118l142 496h58l-157 -550h-410z" />
    <glyph glyph-name="uni0449" unicode="&#x449;" horiz-adv-x="510" 
d="M351 -90l16 90h-395l157 550h58l-142 -496h118l142 496h58l-142 -496h118l142 496h58l-142 -496h43l-41 -144h-48z" />
    <glyph glyph-name="uni044A" unicode="&#x44a;" horiz-adv-x="380" 
d="M22 0l142 496h-87l15 54h145l-67 -236h49q65 0 92.5 -39.5t8.5 -106.5l-8 -30q-21 -73 -57.5 -105.5t-97.5 -32.5h-135zM95 54h72q35 0 54.5 19t32.5 65l10 38q24 84 -57 84h-53z" />
    <glyph glyph-name="uni044B" unicode="&#x44b;" horiz-adv-x="521" 
d="M-28 0l157 550h58l-67 -236h49q65 0 92.5 -39.5t8.5 -106.5l-9 -30q-20 -73 -56.5 -105.5t-97.5 -32.5h-135zM308 0l157 550h58l-157 -550h-58zM45 54h71q35 0 54.5 19t32.5 65l11 38q24 84 -57 84h-53z" />
    <glyph glyph-name="uni044C" unicode="&#x44c;" horiz-adv-x="330" 
d="M-28 0l157 550h58l-67 -236h49q65 0 92.5 -39.5t8.5 -106.5l-9 -30q-20 -73 -56.5 -105.5t-97.5 -32.5h-135zM45 54h71q35 0 54.5 19t32.5 65l11 38q24 84 -57 84h-53z" />
    <glyph glyph-name="uni044D" unicode="&#x44d;" horiz-adv-x="334" 
d="M85 -5q-62 0 -88.5 39.5t-7.5 106.5l16 54h57l-18 -63q-24 -83 49 -83h13q34 0 52.5 18.5t32.5 65.5l33 115h-111l15 54h111l33 115q24 84 -55 84h-9q-32 0 -50 -18.5t-32 -65.5l-18 -62h-57l18 62q21 73 56 105.5t93 32.5h11q64 0 91 -39.5t8 -106.5l-79 -276
q-21 -73 -56.5 -105.5t-95.5 -32.5h-12z" />
    <glyph glyph-name="uni044E" unicode="&#x44e;" horiz-adv-x="510" 
d="M254 -5q-63 0 -89.5 39.5t-7.5 106.5l31 107h-87l-71 -248h-58l157 550h58l-71 -248h87l33 115q21 73 56.5 105.5t94.5 32.5h21q63 0 89 -39.5t7 -106.5l-79 -276q-21 -73 -56.5 -105.5t-93.5 -32.5h-21zM265 49h19q32 0 51 19t32 65l81 284q24 84 -52 84h-19
q-32 0 -51 -19t-32 -65l-81 -284q-24 -84 52 -84z" />
    <glyph glyph-name="uni044F" unicode="&#x44f;" horiz-adv-x="357" 
d="M-63 0l171 247q-54 39 -30 124l12 41q20 73 56.5 105.5t97.5 32.5h135l-157 -550h-58l65 227h-70l-156 -227h-66zM190 278h53l63 218h-71q-35 0 -54.5 -19t-32.5 -65l-15 -50q-24 -84 57 -84z" />
    <glyph glyph-name="uni0451" unicode="&#x451;" horiz-adv-x="348" 
d="M162 619l24 86h66l-24 -86h-66zM282 619l24 86h66l-24 -86h-66zM107 -5q-64 0 -91.5 39.5t-8.5 106.5l79 276q21 73 57 105.5t96 32.5h11q63 0 89 -39.5t7 -106.5l-46 -159h-203l-35 -122q-24 -79 51 -79h14q34 0 52.5 18.5t32.5 65.5l12 42h55l-12 -42
q-21 -73 -56 -105.5t-93 -32.5h-11zM111 300h145l35 121q23 80 -49 80h-13q-34 0 -52.5 -18.5t-32.5 -65.5z" />
    <glyph glyph-name="uni0454" unicode="&#x454;" horiz-adv-x="334" 
d="M107 -5q-64 0 -91.5 39.5t-8.5 106.5l79 276q21 73 57 105.5t96 32.5h12q62 0 88 -39.5t7 -106.5l-16 -54h-57l18 62q24 84 -52 84h-10q-34 0 -52.5 -18.5t-32.5 -65.5l-33 -115h111l-15 -54h-111l-33 -115q-24 -84 55 -84h9q34 0 52.5 18.5t32.5 65.5l18 62h57l-18 -62
q-21 -73 -56.5 -105.5t-94.5 -32.5h-11z" />
    <glyph glyph-name="uni0456" unicode="&#x456;" horiz-adv-x="163" 
d="M145 619l24 86h66l-24 -86h-66zM-28 0l157 550h58l-157 -550h-58z" />
    <glyph glyph-name="uni0457" unicode="&#x457;" horiz-adv-x="186" 
d="M99 619l24 86h66l-24 -86h-66zM219 619l24 86h66l-24 -86h-66zM-14 0l157 550h58l-157 -550h-58z" />
    <glyph glyph-name="uni045E" unicode="&#x45e;" horiz-adv-x="325" 
d="M248 610q-41 0 -59 24.5t-6 65.5l1 5h50l-3 -13q-11 -40 24 -40h15q15 0 23.5 9.5t16.5 33.5l3 10h52l-3 -10q-14 -45 -37 -65t-62 -20h-15zM-73 -155l15 54h29q28 0 42.5 17.5t42.5 81.5l38 552h58l-28 -280l-19 -185h3l215 465h65l-285 -584q-32 -65 -61 -93t-80 -28
h-35z" />
    <glyph glyph-name="uni0490" unicode="&#x490;" horiz-adv-x="295" 
d="M-23 0l200 700h168l40 100h50l-44 -156h-170l-184 -644h-60z" />
    <glyph glyph-name="uni0491" unicode="&#x491;" horiz-adv-x="278" 
d="M-28 0l157 550h147l36 90h48l-41 -144h-147l-142 -496h-58z" />
    <glyph glyph-name="Wgrave" unicode="&#x1e80;" horiz-adv-x="595" 
d="M395 745l-66 110h68l55 -110h-57zM80 0l72 700h61l-42 -356l-30 -258h2l215 510h66l-30 -252l-30 -258h2l261 614h60l-304 -700h-78l57 479h-2l-202 -479h-78z" />
    <glyph glyph-name="wgrave" unicode="&#x1e81;" horiz-adv-x="529" 
d="M319 595l-66 110h68l55 -110h-57zM63 0l36 550h58l-23 -281l-17 -188h3l174 387h53l-35 -387h3l104 230l106 239h63l-259 -550h-71l27 333h-2l-149 -333h-71z" />
    <glyph glyph-name="Wacute" unicode="&#x1e82;" horiz-adv-x="595" 
d="M404 745l69 110h71l-85 -110h-55zM80 0l72 700h61l-42 -356l-30 -258h2l215 510h66l-30 -252l-30 -258h2l261 614h60l-304 -700h-78l57 479h-2l-202 -479h-78z" />
    <glyph glyph-name="wacute" unicode="&#x1e83;" horiz-adv-x="529" 
d="M328 595l69 110h71l-85 -110h-55zM63 0l36 550h58l-23 -281l-17 -188h3l174 387h53l-35 -387h3l104 230l106 239h63l-259 -550h-71l27 333h-2l-149 -333h-71z" />
    <glyph glyph-name="Wdieresis" unicode="&#x1e84;" horiz-adv-x="595" 
d="M349 769l24 86h66l-24 -86h-66zM469 769l24 86h66l-24 -86h-66zM80 0l72 700h61l-42 -356l-30 -258h2l215 510h66l-30 -252l-30 -258h2l261 614h60l-304 -700h-78l57 479h-2l-202 -479h-78z" />
    <glyph glyph-name="wdieresis" unicode="&#x1e85;" horiz-adv-x="529" 
d="M273 619l24 86h66l-24 -86h-66zM393 619l24 86h66l-24 -86h-66zM63 0l36 550h58l-23 -281l-17 -188h3l174 387h53l-35 -387h3l104 230l106 239h63l-259 -550h-71l27 333h-2l-149 -333h-71z" />
    <glyph glyph-name="uni1E9E" unicode="&#x1e9e;" horiz-adv-x="467" 
d="M-23 0l156 545q23 82 64 118.5t109 36.5h239l-13 -46l-216 -257q79 5 110.5 -40.5t9.5 -122.5l-24 -84q-44 -155 -160 -155h-5q-63 0 -89 41.5t-6 111.5l17 59h57l-22 -78q-23 -78 45 -78h13q61 0 90 99l28 97q13 47 -1 73t-47 26h-101l12 43l214 255h-161
q-41 0 -64.5 -22.5t-38.5 -76.5l-156 -545h-60z" />
    <glyph glyph-name="Ygrave" unicode="&#x1ef2;" horiz-adv-x="366" 
d="M278 745l-66 110h68l55 -110h-57zM81 0l76 266l-10 434h58l3 -183l-5 -170h2l209 353h65l-262 -434l-76 -266h-60z" />
    <glyph glyph-name="ygrave" unicode="&#x1ef3;" horiz-adv-x="325" 
d="M220 595l-66 110h68l55 -110h-57zM-73 -155l15 54h29q28 0 42.5 17.5t42.5 81.5l38 552h58l-28 -280l-19 -185h3l215 465h65l-285 -584q-32 -65 -61 -93t-80 -28h-35z" />
    <glyph glyph-name="endash" unicode="&#x2013;" horiz-adv-x="402" 
d="M48 283l17 54h322l-17 -54h-322z" />
    <glyph glyph-name="emdash" unicode="&#x2014;" horiz-adv-x="592" 
d="M48 283l17 54h512l-17 -54h-512z" />
    <glyph glyph-name="quoteleft" unicode="&#x2018;" horiz-adv-x="140" 
d="M101 548l68 160h48l-49 -160h-67z" />
    <glyph glyph-name="quoteright" unicode="&#x2019;" horiz-adv-x="150" 
d="M107 545l49 160h67l-68 -160h-48z" />
    <glyph glyph-name="quotesinglbase" unicode="&#x201a;" horiz-adv-x="172" 
d="M-53 -82l49 160h67l-68 -160h-48z" />
    <glyph glyph-name="quotedblleft" unicode="&#x201c;" horiz-adv-x="251" 
d="M110 545l68 160h48l-49 -160h-67zM221 545l68 160h48l-49 -160h-67z" />
    <glyph glyph-name="quotedblright" unicode="&#x201d;" horiz-adv-x="250" 
d="M113 545l49 160h67l-68 -160h-48zM224 545l49 160h67l-68 -160h-48z" />
    <glyph glyph-name="quotedblbase" unicode="&#x201e;" horiz-adv-x="254" 
d="M-49 -82l49 160h67l-68 -160h-48zM62 -82l49 160h67l-68 -160h-48z" />
    <glyph glyph-name="dagger" unicode="&#x2020;" 
d="M89 0l143 471h-133l16 52h133l54 177h56l-54 -177h133l-16 -52h-133l-143 -471h-56z" />
    <glyph glyph-name="daggerdbl" unicode="&#x2021;" 
d="M89 0l54 177h-133l16 52h133l73 242h-133l16 52h133l54 177h56l-54 -177h133l-16 -52h-133l-73 -242h133l-16 -52h-133l-54 -177h-56z" />
    <glyph glyph-name="bullet" unicode="&#x2022;" horiz-adv-x="370" 
d="M187 225q-36 0 -60.5 24.5t-24.5 60.5t24.5 60.5t60.5 24.5t60.5 -24.5t24.5 -60.5t-24.5 -60.5t-60.5 -24.5z" />
    <glyph glyph-name="ellipsis" unicode="&#x2026;" horiz-adv-x="492" 
d="M-28 0l24 80h72l-24 -80h-72zM132 0l24 80h72l-24 -80h-72zM292 0l24 80h72l-24 -80h-72z" />
    <glyph glyph-name="perthousand" unicode="&#x2030;" horiz-adv-x="663" 
d="M163 417q-38 0 -54 23t-4 62l40 132q21 71 81 71h28q32 0 48 -23.5t6 -55.5l-42 -138q-12 -37 -31 -54t-50 -17h-22zM-48 0l549 700h54l-549 -700h-54zM170 461h15q25 0 35 31l41 136q11 34 -20 34h-15q-25 0 -35 -31l-42 -137q-5 -15 1 -24t20 -9zM259 -5
q-38 0 -53.5 23t-4.5 62l41 132q21 71 80 71h28q32 0 48 -23.5t6 -55.5l-42 -138q-21 -71 -81 -71h-22zM472 -5q-38 0 -53.5 23t-4.5 62l41 132q21 71 80 71h28q32 0 48 -23.5t6 -55.5l-42 -138q-21 -71 -81 -71h-22zM267 39h15q26 0 34 31l42 136q10 34 -21 34h-15
q-25 0 -34 -31l-42 -137q-5 -15 1 -24t20 -9zM480 39h15q26 0 34 31l42 136q10 34 -21 34h-15q-25 0 -34 -31l-42 -137q-5 -15 1 -24t20 -9z" />
    <glyph glyph-name="guilsinglleft" unicode="&#x2039;" horiz-adv-x="216" 
d="M87 170l-38 117l17 53l86 110h63l-111 -143l37 -137h-54z" />
    <glyph glyph-name="guilsinglright" unicode="&#x203a;" horiz-adv-x="216" 
d="M17 170l111 144l-37 136h54l37 -117l-16 -53l-86 -110h-63z" />
    <glyph glyph-name="Euro" unicode="&#x20ac;" horiz-adv-x="440" 
d="M146 -5q-67 0 -94.5 44.5t-6.5 118.5l33 117h-63l14 50h64l14 50h-64l14 50h64l36 125q23 82 61 118.5t99 36.5h15q66 0 93.5 -44.5t6.5 -118.5l-21 -72h-58l23 80q29 99 -56 99h-13q-34 0 -55 -22.5t-37 -76.5l-36 -125h137l-14 -50h-137l-14 -50h137l-14 -50h-137
l-36 -125q-29 -99 57 -99h15q35 0 56.5 22.5t37.5 76.5l23 80h58l-23 -80q-23 -82 -61.5 -118.5t-100.5 -36.5h-17z" />
    <glyph glyph-name="uni20B4" unicode="&#x20b4;" 
d="M110 -5q-67 0 -96 36.5t-10 98.5l2 9q19 58 100 136h-75l15 50h113l53 50h-151l15 50h188l57 54q39 38 52 83l5 15q21 72 -56 72h-18q-71 0 -100 -99l-16 -50h-60l16 50q22 75 66.5 115t103.5 40h15q67 0 96.5 -36.5t10.5 -98.5l-3 -9q-11 -34 -33.5 -63.5t-66.5 -72.5
h82l-15 -50h-120l-53 -50h158l-15 -50h-195l-57 -54q-37 -37 -52 -83l-5 -15q-21 -72 57 -72h18q70 0 100 99l15 50h60l-15 -50q-23 -75 -67.5 -115t-103.5 -40h-15z" />
    <glyph glyph-name="uni20BD" unicode="&#x20bd;" horiz-adv-x="382" 
d="M0 0l59 194h-64l15 50h64l15 50h-63l15 52h64l108 354h104q73 0 103 -44.5t8 -118.5l-27 -88q-25 -82 -66.5 -118.5t-109.5 -36.5h-76l-15 -50h135l-15 -50h-135l-59 -194h-60zM165 346h69q41 0 65.5 22.5t40.5 76.5l30 100q30 99 -66 99h-48z" />
    <glyph glyph-name="uni2116" unicode="&#x2116;" horiz-adv-x="627" 
d="M555 417q-38 0 -54 23t-4 62l40 132q21 71 81 71h28q32 0 48 -23.5t6 -55.5l-42 -138q-12 -37 -31 -54t-50 -17h-22zM-21 0l213 700h52l22 -564h5l89 312l76 252h55l-214 -700h-52l-22 564h-5l-88 -312l-77 -252h-54zM562 461h15q25 0 35 31l41 136q11 34 -20 34h-15
q-25 0 -35 -31l-42 -137q-5 -15 1 -24t20 -9zM450 315l15 50h145l-15 -50h-145z" />
    <glyph glyph-name="trademark" unicode="&#x2122;" horiz-adv-x="392" 
d="M92 430l74 243h-53l8 27h135l-8 -27h-53l-74 -243h-29zM200 430l83 270h28l9 -177l113 177h31l-82 -270h-27l30 97l37 115h-1l-108 -167h-14l-8 166h-2l-32 -114l-30 -97h-27z" />
    <glyph glyph-name="minus" unicode="&#x2212;" 
d="M49 284l15 52h310l-15 -52h-310z" />
    <glyph glyph-name="approxequal" unicode="&#x2248;" 
d="M56 301l23 73q9 30 28.5 55t48.5 25q22 0 33 -5t31 -24l35 -33q5 -5 13.5 -13t12 -11.5t9.5 -7.5t11 -5.5t11 -1.5q17 0 27 27l22 74h46l-22 -73q-9 -30 -30 -55t-48 -25q-23 0 -33.5 5t-29.5 24l-35 33q-7 6 -16.5 15t-12.5 12t-8.5 6.5t-10 4.5t-10.5 1q-8 0 -15.5 -9
t-10.5 -18l-23 -74h-46zM1 121l23 73q9 30 28.5 55t48.5 25q22 0 33 -5t31 -24l35 -33q5 -5 13.5 -13t12 -11.5t9.5 -7.5t11 -5.5t11 -1.5q17 0 27 27l22 74h46l-22 -73q-9 -30 -30 -55t-48 -25q-23 0 -33.5 5t-29.5 24l-35 33q-7 6 -16.5 15t-12.5 12t-8.5 6.5t-10 4.5
t-10.5 1q-8 0 -15.5 -9t-10.5 -18l-23 -74h-46z" />
    <glyph glyph-name="notequal" unicode="&#x2260;" 
d="M8 117l74 91h-82l16 52h109l82 100h-160l15 52h188l74 91h62l-74 -91h60l-15 -52h-88l-82 -100h139l-16 -52h-166l-74 -91h-62z" />
    <glyph glyph-name="lessequal" unicode="&#x2264;" 
d="M329 274l-254 119l13 41l326 119l-19 -64l-229 -81l179 -81zM10 154l16 52h282l-16 -52h-282z" />
    <glyph glyph-name="greaterequal" unicode="&#x2265;" 
d="M55 274l19 64l229 81l-179 81l16 53l254 -119l-13 -41zM20 154l16 52h282l-16 -52h-282z" />
    <glyph glyph-name="i.loclTRK" horiz-adv-x="220" 
d="M145 619l24 86h66l-24 -86h-66zM-28 0l157 550h58l-157 -550h-58z" />
    <glyph glyph-name="a.ss01" horiz-adv-x="364" 
d="M109 -5q-65 0 -93 39.5t-9 106.5l79 276q21 73 57.5 105.5t97.5 32.5h13q65 0 78 -57l36 52h34l-157 -550h-34v44q-36 -49 -95 -49h-7zM120 49h18q62 0 87 84l81 284q24 84 -57 84h-18q-35 0 -54.5 -19t-32.5 -65l-81 -284q-24 -84 57 -84z" />
    <glyph glyph-name="zero.osf" 
d="M119 -5q-70 0 -99 44.5t-8 118.5l69 242q23 82 63 118.5t105 36.5h24q70 0 98.5 -44.5t7.5 -118.5l-69 -242q-23 -82 -62.5 -118.5t-104.5 -36.5h-24zM125 51h27q38 0 60 22.5t38 76.5l73 257q26 92 -56 92h-27q-38 0 -60.5 -22.5t-38.5 -76.5l-73 -257q-26 -92 57 -92z
" />
    <glyph glyph-name="one.osf" horiz-adv-x="215" 
d="M12 0l142 496h-90l15 54h150l-157 -550h-60z" />
    <glyph glyph-name="two.osf" horiz-adv-x="350" 
d="M-43 0l13 46q25 87 85 130l186 131q37 26 54 88l9 32q12 43 -1 57.5t-53 14.5h-27q-35 0 -56 -22.5t-36 -76.5l-17 -60h-56l17 60q23 82 61.5 118.5t100.5 36.5h19q69 0 97.5 -36t6.5 -107l-6 -19q-28 -87 -79 -123l-191 -136q-34 -23 -51 -78h225l-16 -56h-285z" />
    <glyph glyph-name="three.osf" horiz-adv-x="359" 
d="M61 -155q-67 0 -94.5 44.5t-6.5 118.5l26 92h60l-31 -111q-26 -88 49 -88h22q34 0 54.5 22.5t36.5 76.5l21 74q29 99 -58 99h-31l16 54h45q36 0 57.5 22.5t37.5 76.5l22 78q28 95 -47 95h-18q-34 0 -55 -22.5t-37 -76.5l-25 -87h-59l25 87q23 82 61 118.5t101 36.5h15
q65 0 91 -44.5t5 -118.5l-19 -65q-31 -107 -96 -131q52 -43 27 -131l-18 -65q-23 -82 -61.5 -118.5t-101.5 -36.5h-14z" />
    <glyph glyph-name="four.osf" horiz-adv-x="344" 
d="M100 -150l51 169h-219l14 45l354 486h72l-145 -477h64l-17 -54h-64l-51 -169h-59zM11 73h157l58 192l62 187h-2z" />
    <glyph glyph-name="five.osf" horiz-adv-x="363" 
d="M69 -155q-68 0 -96.5 44.5t-7.5 118.5l18 63h57l-22 -78q-26 -92 57 -92h27q35 0 55.5 22.5t36.5 76.5l50 176q26 92 -51 92h-27q-37 0 -55 -15.5t-33 -53.5h-55l112 351h260l-16 -56h-208l-69 -207q40 37 82 37h15q67 0 94.5 -44.5t6.5 -118.5l-46 -161
q-23 -82 -61 -118.5t-100 -36.5h-24z" />
    <glyph glyph-name="six.osf" horiz-adv-x="400" 
d="M116 -5q-69 0 -97.5 44.5t-7.5 118.5l112 392q23 82 62 118.5t103 36.5h20q65 0 91 -44.5t5 -118.5l-12 -42h-56l16 57q26 92 -50 92h-23q-38 0 -60 -22.5t-38 -76.5l-41 -144q32 41 77 41h22q70 0 98.5 -44.5t7.5 -118.5l-38 -134q-23 -82 -62.5 -118.5t-104.5 -36.5
h-24zM122 51h27q38 0 60 22.5t38 76.5l42 149q28 92 -56 92h-27q-38 0 -60.5 -22.5t-38.5 -76.5l-42 -149q-26 -92 57 -92z" />
    <glyph glyph-name="seven.osf" horiz-adv-x="313" 
d="M-91 -150l376 644h-242l16 56h304l-13 -46l-378 -654h-63z" />
    <glyph glyph-name="eight.osf" horiz-adv-x="380" 
d="M108 -5q-70 0 -99 44.5t-8 118.5l19 65q17 59 42 90.5t63 41.5q-50 42 -24 130l18 65q23 82 62.5 118.5t104.5 36.5h20q70 0 99 -44.5t8 -118.5l-19 -65q-31 -109 -97 -136q55 -37 28 -126l-18 -65q-23 -82 -62.5 -118.5t-104.5 -36.5h-32zM213 378h23q38 0 60.5 22.5
t37.5 76.5l23 80q26 92 -57 92h-23q-38 0 -60 -22.5t-38 -76.5l-23 -80q-26 -92 57 -92zM114 51h35q38 0 60 22.5t38 76.5l23 80q26 92 -57 92h-35q-38 0 -60.5 -22.5t-37.5 -76.5l-23 -80q-26 -92 57 -92z" />
    <glyph glyph-name="nine.osf" horiz-adv-x="386" 
d="M78 -155q-65 0 -91 44.5t-5 118.5l12 42h56l-16 -57q-26 -92 50 -92h23q38 0 60 22.5t38 76.5l41 144q-32 -41 -77 -41h-22q-70 0 -98.5 44.5t-7.5 118.5l38 134q23 82 62.5 118.5t104.5 36.5h24q69 0 97.5 -44.5t7.5 -118.5l-112 -392q-23 -82 -62 -118.5t-103 -36.5
h-20zM153 159h27q38 0 60.5 22.5t38.5 76.5l42 149q26 92 -57 92h-27q-38 0 -60 -22.5t-38 -76.5l-42 -149q-28 -92 56 -92z" />
    <glyph glyph-name="zero.tf" horiz-adv-x="394" 
d="M119 -5q-70 0 -99 44.5t-8 118.5l112 392q23 82 62.5 118.5t104.5 36.5h24q70 0 99 -44.5t8 -118.5l-112 -392q-23 -82 -62.5 -118.5t-104.5 -36.5h-24zM125 51h27q38 0 60 22.5t38 76.5l116 407q26 92 -57 92h-27q-38 0 -60 -22.5t-38 -76.5l-116 -407q-26 -92 57 -92z
" />
    <glyph glyph-name="one.tf" 
d="M-27 0l15 54h122l170 592h-122l15 54h182l-185 -646h118l-15 -54h-300z" />
    <glyph glyph-name="two.tf" 
d="M-26 0l26 92q21 71 78 126l217 209q40 38 54 88l12 42q26 92 -49 92h-27q-36 0 -57 -22.5t-37 -76.5l-17 -60h-56l17 60q23 82 61.5 118.5t102.5 36.5h19q66 0 93 -44.5t6 -118.5l-8 -26q-20 -71 -78 -126l-216 -209q-40 -38 -54 -88l-11 -37h228l-16 -56h-288z" />
    <glyph glyph-name="three.tf" horiz-adv-x="412" 
d="M114 -5q-67 0 -94.5 44.5t-6.5 118.5l26 92h60l-31 -111q-26 -88 49 -88h22q34 0 54.5 22.5t36.5 76.5l21 74q29 99 -58 99h-31l16 54h45q36 0 57.5 22.5t37.5 76.5l22 78q28 95 -47 95h-18q-34 0 -55 -22.5t-37 -76.5l-25 -87h-59l25 87q23 82 61 118.5t101 36.5h15
q65 0 91 -44.5t5 -118.5l-19 -65q-31 -107 -96 -131q52 -43 27 -131l-18 -65q-23 -82 -61.5 -118.5t-101.5 -36.5h-14z" />
    <glyph glyph-name="four.tf" 
d="M160 0l48 169h-224l13 45l350 486h72l-136 -477h67l-16 -54h-67l-48 -169h-59zM62 223h162l55 192l58 187h-2z" />
    <glyph glyph-name="five.tf" 
d="M119 -5q-68 0 -96.5 44.5t-7.5 118.5l18 63h57l-22 -78q-26 -92 57 -92h27q35 0 55.5 22.5t36.5 76.5l50 176q26 92 -51 92h-27q-37 0 -55 -15.5t-33 -53.5h-55l112 351h260l-16 -56h-208l-69 -207q40 37 82 37h15q67 0 94.5 -44.5t6.5 -118.5l-46 -161
q-23 -82 -61 -118.5t-100 -36.5h-24z" />
    <glyph glyph-name="six.tf" 
d="M119 -5q-69 0 -97.5 44.5t-7.5 118.5l112 392q23 82 62 118.5t103 36.5h20q65 0 91 -44.5t5 -118.5l-12 -42h-56l16 57q26 92 -50 92h-23q-38 0 -60 -22.5t-38 -76.5l-41 -144q32 41 77 41h22q70 0 98.5 -44.5t7.5 -118.5l-38 -134q-23 -82 -62.5 -118.5t-104.5 -36.5
h-24zM125 51h27q38 0 60 22.5t38 76.5l42 149q28 92 -56 92h-27q-38 0 -60.5 -22.5t-38.5 -76.5l-42 -149q-26 -92 57 -92z" />
    <glyph glyph-name="seven.tf" 
d="M-6 0l409 644h-269l16 56h334l-13 -46l-415 -654h-62z" />
    <glyph glyph-name="eight.tf" 
d="M115 -5q-70 0 -99 44.5t-8 118.5l19 65q17 59 42 90.5t63 41.5q-50 42 -24 130l18 65q23 82 62.5 118.5t104.5 36.5h20q70 0 99 -44.5t8 -118.5l-19 -65q-31 -109 -97 -136q55 -37 28 -126l-18 -65q-23 -82 -62.5 -118.5t-104.5 -36.5h-32zM220 378h23q38 0 60.5 22.5
t37.5 76.5l23 80q26 92 -57 92h-23q-38 0 -60 -22.5t-38 -76.5l-23 -80q-26 -92 57 -92zM121 51h35q38 0 60 22.5t38 76.5l23 80q26 92 -57 92h-35q-38 0 -60.5 -22.5t-37.5 -76.5l-23 -80q-26 -92 57 -92z" />
    <glyph glyph-name="nine.tf" 
d="M123 -5q-65 0 -91 44.5t-5 118.5l12 42h56l-16 -57q-26 -92 50 -92h23q38 0 60 22.5t38 76.5l41 144q-32 -41 -77 -41h-22q-70 0 -98.5 44.5t-7.5 118.5l38 134q23 82 62.5 118.5t104.5 36.5h24q69 0 97.5 -44.5t7.5 -118.5l-112 -392q-23 -82 -62 -118.5t-103 -36.5h-20
zM198 309h27q38 0 60.5 22.5t38.5 76.5l42 149q26 92 -57 92h-27q-38 0 -60 -22.5t-38 -76.5l-42 -149q-28 -92 56 -92z" />
    <glyph glyph-name="zero.tosf" 
d="M119 -5q-70 0 -99 44.5t-8 118.5l69 242q23 82 63 118.5t105 36.5h24q70 0 98.5 -44.5t7.5 -118.5l-69 -242q-23 -82 -62.5 -118.5t-104.5 -36.5h-24zM125 51h27q38 0 60 22.5t38 76.5l73 257q26 92 -56 92h-27q-38 0 -60.5 -22.5t-38.5 -76.5l-73 -257q-26 -92 57 -92z
" />
    <glyph glyph-name="one.tosf" 
d="M-29 0l16 54h122l136 442h-123l17 54h182l-152 -496h118l-16 -54h-300z" />
    <glyph glyph-name="two.tosf" 
d="M-24 0l13 46q27 88 85 130l186 131q37 26 54 88l9 32q12 43 -1 57.5t-53 14.5h-27q-34 0 -55 -22.5t-37 -76.5l-17 -60h-56l17 60q23 82 61.5 118.5t100.5 36.5h19q68 0 96 -35.5t8 -107.5l-6 -19q-8 -29 -28 -65t-51 -58l-191 -136q-34 -23 -51 -78h225l-16 -56h-285z
" />
    <glyph glyph-name="three.tosf" 
d="M64 -155q-67 0 -93.5 44.5t-3.5 118.5l28 92h60l-34 -111q-26 -88 48 -88h22q34 0 55 22.5t38 76.5l22 74q30 99 -56 99h-31l17 54h45q36 0 58.5 22.5t38.5 76.5l24 78q29 95 -45 95h-18q-35 0 -56.5 -22.5t-37.5 -76.5l-27 -87h-59l27 87q25 82 63.5 118.5t101.5 36.5
h15q64 0 89.5 -44.5t2.5 -118.5l-20 -65q-32 -107 -99 -131q52 -41 25 -131l-19 -65q-26 -82 -65 -118.5t-102 -36.5h-14z" />
    <glyph glyph-name="four.tosf" 
d="M123 -150l51 169h-224l14 45l359 486h72l-145 -477h67l-17 -54h-67l-51 -169h-59zM29 73h162l58 192l62 187h-2z" />
    <glyph glyph-name="five.tosf" 
d="M75 -155q-68 0 -95.5 44.5t-4.5 118.5l19 63h57l-23 -78q-29 -92 55 -92h27q35 0 56 22.5t38 76.5l53 176q29 92 -49 92h-27q-36 0 -54.5 -15.5t-35.5 -53.5h-55l119 351h260l-17 -56h-208l-72 -207q39 37 82 37h15q67 0 93.5 -44.5t4.5 -118.5l-49 -161
q-26 -82 -64.5 -118.5t-100.5 -36.5h-24z" />
    <glyph glyph-name="six.tosf" 
d="M114 -5q-69 0 -96.5 44.5t-4.5 118.5l120 392q25 82 64.5 118.5t103.5 36.5h20q64 0 89.5 -44.5t2.5 -118.5l-13 -42h-56l18 57q28 92 -48 92h-23q-38 0 -61 -22.5t-39 -76.5l-44 -144q31 41 77 41h22q70 0 98 -44.5t6 -118.5l-41 -134q-26 -82 -66 -118.5t-105 -36.5
h-24zM122 51h27q38 0 60.5 22.5t39.5 76.5l45 149q28 92 -55 92h-27q-38 0 -60.5 -22.5t-39.5 -76.5l-45 -149q-29 -92 55 -92z" />
    <glyph glyph-name="seven.tosf" 
d="M-76 -150l420 644h-268l17 56h334l-14 -46l-427 -654h-62z" />
    <glyph glyph-name="eight.tosf" 
d="M114 -5q-70 0 -98 44.5t-5 118.5l20 65q18 59 43.5 90t63.5 42q-49 41 -21 130l20 65q25 82 65 118.5t105 36.5h20q70 0 98 -44.5t5 -118.5l-20 -65q-32 -108 -99 -136q53 -37 25 -126l-19 -65q-26 -82 -66 -118.5t-105 -36.5h-32zM227 378h23q38 0 60.5 22.5t39.5 76.5
l25 80q28 92 -55 92h-23q-38 0 -61 -22.5t-39 -76.5l-25 -80q-28 -92 55 -92zM122 51h35q38 0 60.5 22.5t39.5 76.5l24 80q28 92 -55 92h-35q-38 0 -60.5 -22.5t-39.5 -76.5l-24 -80q-29 -92 55 -92z" />
    <glyph glyph-name="nine.tosf" 
d="M59 -155q-64 0 -89.5 44.5t-2.5 118.5l13 42h56l-18 -57q-28 -92 48 -92h23q38 0 61 22.5t39 76.5l44 144q-31 -41 -77 -41h-22q-70 0 -98 44.5t-6 118.5l41 134q26 82 66 118.5t105 36.5h24q69 0 96.5 -44.5t4.5 -118.5l-120 -392q-25 -82 -64.5 -118.5t-103.5 -36.5
h-20zM141 159h27q38 0 60.5 22.5t39.5 76.5l45 149q29 92 -55 92h-27q-38 0 -60.5 -22.5t-39.5 -76.5l-45 -149q-28 -92 55 -92z" />
    <glyph glyph-name="at.case" horiz-adv-x="600" 
d="M135 -5q-79 0 -107 49t-5 123l117 383q25 83 68 119t112 36h202q79 0 107 -49t5 -123l-85 -280q-24 -78 -61.5 -111t-97.5 -33h-55v40q-39 -44 -86 -44h-6q-52 0 -72 35.5t-3 91.5l4 15q17 54 44.5 77t81.5 43l90 32q16 4 21 22l16 54q23 73 -46 73h-7q-30 0 -47.5 -16.5
t-29.5 -56.5l-17 -57h-48l16 54q20 63 51 91.5t82 28.5h10q56 0 78.5 -34.5t5.5 -92.5l-95 -309h33q27 0 49 20t32 53l92 304q18 59 -2.5 92t-74.5 33h-202q-83 0 -115 -108l-117 -383q-18 -59 2.5 -92t74.5 -33h195l-15 -47h-195zM253 152h16q27 0 49 21t33 58l39 126
l-92 -33q-36 -13 -51.5 -32t-25.5 -52l-5 -15q-22 -73 37 -73z" />
    <glyph glyph-name="PariMatch" horiz-adv-x="2548" 
d="M149 373l93 327h503q58 0 82.5 -32.5t8.5 -88.5l-9 -32q-25 -86 -115 -86h-116l-25 -88h-422zM770 373l192 327h185v-327h-94v55h-143l-31 -55h-109zM1177 373l93 327h179q58 0 82 -32t8 -89l-8 -29q-18 -64 -71 -81l29 -96h-101l-27 90h-61l-25 -90h-98zM1525 373
l93 327h98l-93 -327h-98zM619 541h106l20 71h-106zM1323 541h106l19 71h-105zM955 507h98v104h-39zM329 0l93 327h424l46 -131l110 131h127l-93 -327h-98l53 187l-91 -107h-63l-34 101l-52 -181h-422zM1075 0l193 327h184v-327h-94v55h-143l-31 -55h-109zM1527 0l66 233
h-107l27 94h297l-27 -94h-92l-66 -233h-98zM1872 0q-58 0 -82.5 32t-8.5 89l35 119q25 87 115 87h158l-27 -94h-149l-40 -140h149l-27 -93h-123zM2041 0l93 327h98l-33 -117h112l33 117h98l-93 -327h-98l33 117h-112l-33 -117h-98zM1260 134h98v104h-39z" />
    </font>
</defs>
</svg>
